<?xml version="1.0" standalone="no"?>
<!DOCTYPE svg PUBLIC "-//W3C//DTD SVG 20010904//EN"
 "http://www.w3.org/TR/2001/REC-SVG-20010904/DTD/svg10.dtd">
<svg version="1.0" xmlns="http://www.w3.org/2000/svg"
 width="512.000000pt" height="512.000000pt" viewBox="0 0 512.000000 512.000000"
 preserveAspectRatio="xMidYMid meet">
<metadata>
Created by potrace 1.11, written by Peter Selinger 2001-2013
</metadata>
<g transform="translate(0.000000,512.000000) scale(0.100000,-0.100000)"
fill="#000000" stroke="none">
<path d="M2250 5105 c-1090 -135 -1981 -955 -2201 -2027 -49 -241 -63 -578
-35 -818 142 -1179 1067 -2104 2246 -2246 148 -17 452 -17 600 0 1016 123
1859 830 2154 1808 120 396 140 850 57 1256 -221 1076 -1115 1896 -2211 2028
-142 17 -469 16 -610 -1z m517 -1036 c158 -36 282 -108 400 -232 120 -126 183
-281 185 -452 1 -121 -15 -192 -69 -305 -39 -82 -58 -107 -137 -185 -53 -53
-117 -105 -154 -125 -34 -19 -69 -39 -76 -45 -12 -8 26 -145 210 -755 123
-410 223 -751 224 -757 0 -10 -163 -13 -785 -13 -622 0 -785 3 -785 13 1 6
101 347 224 757 184 610 222 747 210 755 -7 6 -42 26 -76 45 -37 20 -101 72
-154 125 -79 78 -98 103 -137 185 -54 113 -70 184 -69 305 2 171 65 326 185
452 210 221 495 303 804 232z"/>
</g>
</svg>
