<?xml version="1.0" standalone="no"?>
<!DOCTYPE svg PUBLIC "-//W3C//DTD SVG 20010904//EN"
 "http://www.w3.org/TR/2001/REC-SVG-20010904/DTD/svg10.dtd">
<svg version="1.0" xmlns="http://www.w3.org/2000/svg"
 width="1024.000000pt" height="1024.000000pt" viewBox="0 0 1024.000000 1024.000000"
 preserveAspectRatio="xMidYMid meet">
<metadata>
Created by potrace 1.11, written by Peter Selinger 2001-2013
</metadata>
<g transform="translate(0.000000,1024.000000) scale(0.100000,-0.100000)"
fill="#000000" stroke="none">
<path d="M25 10215 l-25 -24 0 -5071 0 -5071 25 -24 24 -25 5071 0 5071 0 24
25 25 24 0 5071 0 5071 -25 24 -24 25 -5071 0 -5071 0 -24 -25z m5326 -2039
c326 -44 632 -181 874 -393 240 -209 399 -485 462 -799 23 -120 23 -365 0
-487 -87 -439 -376 -810 -794 -1021 l-92 -45 10 -33 c5 -18 209 -701 453
-1518 l443 -1485 -793 -3 c-437 -1 -1151 -1 -1588 0 l-793 3 433 1450 c239
798 442 1480 453 1517 l19 67 -76 38 c-198 97 -424 285 -558 463 -114 151
-212 372 -251 568 -26 130 -23 375 5 510 119 554 550 980 1145 1133 186 48
446 61 648 35z"/>
</g>
</svg>
