<svg width="20" height="20" viewBox="0 0 20 20" fill="none" xmlns="http://www.w3.org/2000/svg">
<path d="M19.1668 9.99998C19.1668 9.07915 18.421 8.33331 17.5002 8.33331H16.4485C16.291 7.72331 16.051 7.14831 15.7385 6.61831L16.4818 5.87498C17.1327 5.22415 17.1327 4.16915 16.4818 3.51831C15.831 2.86748 14.776 2.86748 14.1252 3.51831L13.3818 4.26165C12.8518 3.94915 12.2768 3.70915 11.6668 3.55165V2.49998C11.6668 1.57998 10.921 0.833313 10.0002 0.833313C9.07933 0.833313 8.3335 1.57915 8.3335 2.49998V3.55165C7.7235 3.70915 7.1485 3.94915 6.6185 4.26165L5.87516 3.51831C5.22433 2.86748 4.16933 2.86748 3.5185 3.51831C2.86766 4.16915 2.86766 5.22415 3.5185 5.87498L4.26183 6.61831C3.94933 7.14831 3.70933 7.72331 3.55183 8.33331H2.50016C1.58016 8.33331 0.833496 9.07915 0.833496 9.99998C0.833496 10.9208 1.57933 11.6666 2.50016 11.6666H3.55183C3.70933 12.2766 3.94933 12.8516 4.26183 13.3816L3.5185 14.125C2.86766 14.7758 2.86766 15.8308 3.5185 16.4816C4.16933 17.1325 5.22433 17.1325 5.87516 16.4816L6.6185 15.7383C7.14766 16.0508 7.7235 16.2908 8.3335 16.4483V17.5C8.3335 18.42 9.07933 19.1666 10.0002 19.1666C10.921 19.1666 11.6668 18.4208 11.6668 17.5V16.4483C12.2768 16.2908 12.8518 16.0508 13.3818 15.7383L14.1252 16.4816C14.776 17.1325 15.831 17.1325 16.4818 16.4816C17.1327 15.8308 17.1327 14.7758 16.4818 14.125L15.7385 13.3816C16.051 12.8525 16.291 12.2766 16.4485 11.6666H17.5002C18.4202 11.6666 19.1668 10.9208 19.1668 9.99998Z" fill="#777777" stroke="#777777" stroke-width="1.5" stroke-miterlimit="10" stroke-linecap="round" stroke-linejoin="round"/>
<path d="M10 12.5C11.3807 12.5 12.5 11.3807 12.5 10C12.5 8.61929 11.3807 7.5 10 7.5C8.61929 7.5 7.5 8.61929 7.5 10C7.5 11.3807 8.61929 12.5 10 12.5Z" fill="white" stroke="white" stroke-width="1.5" stroke-miterlimit="10" stroke-linecap="round" stroke-linejoin="round"/>
</svg>
