<svg width="14" height="14" viewBox="0 0 14 14" fill="none" xmlns="http://www.w3.org/2000/svg">
<path d="M7.00004 0.583374C3.45629 0.583374 0.583374 3.45629 0.583374 7.00004C0.583374 10.5439 3.45629 13.4167 7.00004 13.4167C10.5439 13.4167 13.4167 10.5439 13.4167 7.00004C13.4167 3.45629 10.5439 0.583374 7.00004 0.583374ZM7.00004 12.25C4.10058 12.25 1.75004 9.8995 1.75004 7.00004C1.75004 4.10058 4.10058 1.75004 7.00004 1.75004C9.8995 1.75004 12.25 4.10058 12.25 7.00004C12.25 9.8995 9.8995 12.25 7.00004 12.25Z" fill="#777777"/>
<path d="M7.58329 6.75831V3.49996C7.58329 3.17781 7.32211 2.91663 6.99996 2.91663C6.67781 2.91663 6.41663 3.17781 6.41663 3.49996V6.99996C6.41663 7.00127 6.41706 7.00258 6.41706 7.0039C6.41721 7.04079 6.42085 7.07769 6.42815 7.114C6.43165 7.13194 6.43821 7.14812 6.44331 7.16562C6.449 7.18487 6.45338 7.20442 6.46111 7.22323C6.46956 7.24335 6.48094 7.26173 6.49144 7.28069C6.49931 7.29527 6.50558 7.30985 6.51477 7.32371C6.53621 7.35594 6.56056 7.38612 6.58783 7.4131L8.23736 9.06277C8.46515 9.29056 8.83484 9.29056 9.06248 9.06277C9.29027 8.83498 9.29027 8.46529 9.06248 8.23794L7.58329 6.75831Z" fill="#777777"/>
</svg>
