<svg width="16" height="16" fill="none" xmlns="http://www.w3.org/2000/svg"><path d="M5.5 2.5v-2h5v2M4.5 13.5v2h-4v-2M15.5 13.5v2h-4v-2M15.5 13.5H.5V9.914a1 1 0 01.293-.707L1.5 8.5h13l.707.707a1 1 0 01.293.707V13.5z" stroke="#444" stroke-miterlimit="10" stroke-linecap="round" stroke-linejoin="round"/><path d="M3 12a1 1 0 100-2 1 1 0 000 2zM13 12a1 1 0 100-2 1 1 0 000 2z" fill="#444"/><path d="M1.5 8.5l.861-5.164a.999.999 0 01.986-.836h9.306c.489 0 .906.353.986.836L14.5 8.5" stroke="#444" stroke-miterlimit="10" stroke-linecap="round" stroke-linejoin="round"/></svg>