<svg width="20" height="20" viewBox="0 0 20 20" fill="none" xmlns="http://www.w3.org/2000/svg">
<g clip-path="url(#clip0)">
<path d="M19.6063 17.293L15.7355 13.3984C15.5608 13.2227 15.324 13.125 15.0755 13.125H14.4426C15.5142 11.7461 16.1509 10.0117 16.1509 8.125C16.1509 3.63672 12.5364 0 8.07546 0C3.61454 0 0 3.63672 0 8.125C0 12.6133 3.61454 16.25 8.07546 16.25C9.95067 16.25 11.6745 15.6094 13.045 14.5312V15.168C13.045 15.418 13.142 15.6562 13.3167 15.832L17.1875 19.7266C17.5525 20.0938 18.1426 20.0938 18.5037 19.7266L19.6024 18.6211C19.9673 18.2539 19.9673 17.6602 19.6063 17.293ZM8.07546 13.125C5.33058 13.125 3.10594 10.8906 3.10594 8.125C3.10594 5.36328 5.32669 3.125 8.07546 3.125C10.8203 3.125 13.045 5.35938 13.045 8.125C13.045 10.8867 10.8242 13.125 8.07546 13.125Z" fill="#777777"/>
</g>
<defs>
<clipPath id="clip0">
<rect width="19.878" height="20" fill="white"/>
</clipPath>
</defs>
</svg>
