<svg width="18" height="20" viewBox="0 0 18 20" fill="none" xmlns="http://www.w3.org/2000/svg">
<g clip-path="url(#clip0)">
<path d="M8.71881 20C10.0937 20 11.2089 18.8809 11.2089 17.5H6.22868C6.22868 18.8809 7.34393 20 8.71881 20ZM17.1032 14.152C16.3511 13.341 14.9439 12.1211 14.9439 8.125C14.9439 5.08984 12.8232 2.66016 9.96367 2.06406V1.25C9.96367 0.559766 9.40625 0 8.71881 0C8.03137 0 7.47394 0.559766 7.47394 1.25V2.06406C4.61441 2.66016 2.4937 5.08984 2.4937 8.125C2.4937 12.1211 1.08651 13.341 0.334451 14.152C0.100892 14.4039 -0.00265183 14.7051 -0.000705509 15C0.00357639 15.6406 0.504559 16.25 1.24883 16.25H16.1888C16.9331 16.25 17.4344 15.6406 17.4383 15C17.4403 14.7051 17.3367 14.4035 17.1032 14.152Z" fill="#777777"/>
<circle cx="12" cy="6" r="4.5" fill="#F9423A" stroke="white"/>
</g>
<defs>
<clipPath id="clip0">
<rect width="17.439" height="20" fill="white"/>
</clipPath>
</defs>
</svg>
