<svg width="44" height="41" fill="none" xmlns="http://www.w3.org/2000/svg"><path d="M20.3 5a7 7 0 100 6H26l3 2 3-2h5l1-6H20.3zM7 22h2a9.583 9.583 0 018 4h6a6.621 6.621 0 016 6H15" stroke="#111" stroke-width="1.5" stroke-miterlimit="10" stroke-linecap="round" stroke-linejoin="round"/><path d="M27.2 28H37a6.074 6.074 0 016 4l-21.2 7.7a9.449 9.449 0 01-5-.2L7 34.9M7 20H1v16h6V20z" stroke="#111" stroke-width="1.5" stroke-miterlimit="10" stroke-linecap="round" stroke-linejoin="round"/><path d="M13 10a2 2 0 100-4 2 2 0 000 4z" fill="#111"/></svg>