<svg width="18" height="20" viewBox="0 0 18 20" fill="none" xmlns="http://www.w3.org/2000/svg">
<g clip-path="url(#clip0)">
<path d="M0.622822 5.15625H16.8162C17.1602 5.15625 17.439 4.87645 17.439 4.53125V2.96875C17.439 2.62355 17.1602 2.34375 16.8162 2.34375H0.622822C0.27883 2.34375 0 2.62355 0 2.96875V4.53125C0 4.87645 0.27883 5.15625 0.622822 5.15625ZM0.622822 11.4062H16.8162C17.1602 11.4062 17.439 11.1264 17.439 10.7812V9.21875C17.439 8.87355 17.1602 8.59375 16.8162 8.59375H0.622822C0.27883 8.59375 0 8.87355 0 9.21875V10.7812C0 11.1264 0.27883 11.4062 0.622822 11.4062ZM0.622822 17.6562H16.8162C17.1602 17.6562 17.439 17.3764 17.439 17.0312V15.4688C17.439 15.1236 17.1602 14.8438 16.8162 14.8438H0.622822C0.27883 14.8438 0 15.1236 0 15.4688V17.0312C0 17.3764 0.27883 17.6562 0.622822 17.6562Z" fill="#777777"/>
</g>
<defs>
<clipPath id="clip0">
<rect width="17.439" height="20" fill="white"/>
</clipPath>
</defs>
</svg>
