<svg width="20" height="20" viewBox="0 0 20 20" fill="none" xmlns="http://www.w3.org/2000/svg">
<g clip-path="url(#clip0)">
<path d="M9.69512 0.3125C4.34052 0.3125 0 4.64961 0 10C0 15.3504 4.34052 19.6875 9.69512 19.6875C15.0497 19.6875 19.3902 15.3504 19.3902 10C19.3902 4.64961 15.0497 0.3125 9.69512 0.3125ZM12.9121 14.2812C12.7596 14.4328 12.5997 14.5918 12.47 14.7219C12.3531 14.8391 12.2706 14.9836 12.2288 15.1402C12.1697 15.3613 12.122 15.5848 12.0423 15.7992L11.3624 17.6293C10.8245 17.7465 10.2678 17.8125 9.69512 17.8125V16.743C9.76119 16.25 9.39645 15.3266 8.81044 14.741C8.57588 14.5066 8.44414 14.1887 8.44414 13.857V12.6066C8.44414 12.152 8.19902 11.734 7.80066 11.5141C7.23889 11.2035 6.43983 10.7695 5.89252 10.4941C5.44373 10.2684 5.02856 9.98086 4.65522 9.64453L4.62395 9.61641C4.35697 9.3756 4.11992 9.1036 3.91792 8.80625C3.55123 8.26836 2.95388 7.38359 2.56569 6.80859C3.36593 5.03125 4.80808 3.60391 6.60011 2.82852L7.53874 3.29766C7.95469 3.50547 8.44414 3.20352 8.44414 2.73867V2.29727C8.75649 2.24688 9.07432 2.21484 9.39762 2.20273L10.504 3.3082C10.7483 3.55234 10.7483 3.94805 10.504 4.19219L10.3206 4.375L9.91639 4.77891C9.79442 4.90078 9.79442 5.09883 9.91639 5.2207L10.0997 5.40391C10.2217 5.52578 10.2217 5.72383 10.0997 5.8457L9.78699 6.1582C9.72827 6.21676 9.64869 6.24964 9.56572 6.24961H9.21428C9.13296 6.24961 9.05477 6.28125 8.99613 6.33828L8.60833 6.71523C8.56079 6.76149 8.52919 6.82164 8.51809 6.887C8.50699 6.95237 8.51696 7.01957 8.54656 7.07891L9.15603 8.29727C9.26001 8.50508 9.10872 8.74961 8.87651 8.74961H8.65602C8.58057 8.74961 8.50786 8.72227 8.45117 8.67305L8.08839 8.3582C8.00629 8.28704 7.90707 8.23845 7.80049 8.21722C7.6939 8.19599 7.58362 8.20284 7.48049 8.23711L6.26195 8.64297C6.16892 8.67396 6.08801 8.73343 6.03069 8.81293C5.97336 8.89244 5.94253 8.98795 5.94256 9.08594C5.94256 9.26289 6.04264 9.42422 6.20097 9.50352L6.63412 9.71992C7.00199 9.90391 7.40778 9.99961 7.81904 9.99961C8.2303 9.99961 8.70215 11.0656 9.07002 11.2496H11.6795C12.0114 11.2496 12.3292 11.3812 12.5642 11.6156L13.0994 12.1504C13.3229 12.3739 13.4485 12.677 13.4485 12.993C13.4484 13.2324 13.401 13.4695 13.3089 13.6906C13.2169 13.9117 13.082 14.1124 12.9121 14.2812ZM16.3019 10.7129C16.0755 10.6562 15.8781 10.5176 15.7487 10.3234L15.0458 9.26992C14.943 9.116 14.8881 8.93508 14.8881 8.75C14.8881 8.56492 14.943 8.384 15.0458 8.23008L15.8116 7.08242C15.9023 6.94688 16.0267 6.83672 16.1729 6.76406L16.6803 6.51055C17.2088 7.56211 17.5138 8.74492 17.5138 10C17.5138 10.3387 17.4848 10.6703 17.4426 10.9977L16.3019 10.7129Z" fill="#777777"/>
</g>
<defs>
<clipPath id="clip0">
<rect width="19.3902" height="20" fill="white"/>
</clipPath>
</defs>
</svg>
