<svg width="16" height="16" viewBox="0 0 16 16" fill="none" xmlns="http://www.w3.org/2000/svg"><path d="M15.111 4.864H6.156V3.087h8.955a.889.889 0 010 1.777zM15.111 8.43H6.156V6.654h8.955a.889.889 0 010 1.778zM15.111 10.22a.889.889 0 110 1.777H8.89a2.195 2.195 0 00-.188-1.777h6.41z" fill="#444"/><path d="M.33 10.524a1.124 1.124 0 011.588 0l.923.922V1.841a1.124 1.124 0 112.248 0v9.605l.923-.922a1.124 1.124 0 011.59 1.589L4.76 14.954c-.438.438-1.15.44-1.59 0L.33 12.113a1.124 1.124 0 010-1.59z" fill="#444"/></svg>