<svg width="20" height="20" viewBox="0 0 20 20" fill="none" xmlns="http://www.w3.org/2000/svg">
<g clip-path="url(#clip0)">
<path d="M19.6063 17.293L15.7355 13.3984C15.5608 13.2227 15.324 13.125 15.0755 13.125H14.4426C15.5142 11.7461 16.1509 10.0117 16.1509 8.125C16.1509 3.63672 12.5364 0 8.07546 0C3.61454 0 0 3.63672 0 8.125C0 12.6133 3.61454 16.25 8.07546 16.25C9.95067 16.25 11.6745 15.6094 13.045 14.5312V15.168C13.045 15.418 13.142 15.6562 13.3167 15.832L17.1875 19.7266C17.5525 20.0938 18.1426 20.0938 18.5037 19.7266L19.6024 18.6211C19.9673 18.2539 19.9673 17.6602 19.6063 17.293ZM8.07546 13.125C5.33058 13.125 3.10594 10.8906 3.10594 8.125C3.10594 5.36328 5.32669 3.125 8.07546 3.125C10.8203 3.125 13.045 5.35938 13.045 8.125C13.045 10.8867 10.8242 13.125 8.07546 13.125Z" fill="#777777"/>
<g clip-path="url(#clip1)">
<path d="M17.6369 0.645385C16.6449 -0.199985 15.1696 -0.047927 14.259 0.891574L13.9024 1.25905L13.5458 0.891574C12.6371 -0.047927 11.16 -0.199985 10.168 0.645385C9.03115 1.61566 8.97141 3.35709 9.98875 4.40882L13.4915 8.02563C13.7178 8.25914 14.0853 8.25914 14.3115 8.02563L17.8143 4.40882C18.8335 3.35709 18.7737 1.61566 17.6369 0.645385Z" fill="white"/>
<g clip-path="url(#clip2)">
<path d="M17.0766 0.855863C16.3274 0.217387 15.2131 0.33223 14.5254 1.0418L14.2561 1.31934L13.9868 1.0418C13.3004 0.33223 12.1848 0.217387 11.4356 0.855863C10.577 1.58868 10.5319 2.90391 11.3002 3.69825L13.9457 6.42989C14.1166 6.60625 14.3942 6.60625 14.5651 6.42989L17.2106 3.69825C17.9803 2.90391 17.9352 1.58868 17.0766 0.855863Z" fill="#777777"/>
</g>
</g>
</g>
<defs>
<clipPath id="clip0">
<rect width="19.878" height="20" fill="white"/>
</clipPath>
<clipPath id="clip1">
<rect width="9.26829" height="9.26829" fill="white" transform="translate(9.26831 -0.487808)"/>
</clipPath>
<clipPath id="clip2">
<rect width="7" height="7" fill="white" transform="translate(10.7561)"/>
</clipPath>
</defs>
</svg>
