<svg width="24" height="24" fill="none" xmlns="http://www.w3.org/2000/svg"><path d="M11.37 5.784a2.5 2.5 0 100-5 2.5 2.5 0 000 5zM13.56 11.18c.732.55 1.549.977 2.417 1.266l1.177.392a1.5 1.5 0 001.958-1.198 1.551 1.551 0 00-1.084-1.673L16.925 9.6a5.514 5.514 0 01-1.564-.82l-1.016-.762a5.7 5.7 0 00-5.963-.54A6.319 6.319 0 004.87 13.05a1.5 1.5 0 001.5 1.613 1.5 1.5 0 001.5-1.426 3.413 3.413 0 011.622-2.944.25.25 0 01.38.214v1.357c0 1.418-.156 2.833-.463 4.217a12.745 12.745 0 01-2.214 4.7 1.5 1.5 0 002.345 1.873 17.331 17.331 0 002.56-5.309.25.25 0 01.433-.08 16.622 16.622 0 012.415 4.926 1.5 1.5 0 102.846-.952 17.2 17.2 0 00-4.568-7.518.992.992 0 01-.355-.754v-1.804a.25.25 0 01.4-.2l.288.218z" fill="#444"/></svg>