<svg width="20" height="20" viewBox="0 0 20 20" fill="none" xmlns="http://www.w3.org/2000/svg">
<g clip-path="url(#clip0)">
<path d="M11.875 16.25H9.37503C9.20927 16.25 9.0503 16.3158 8.93309 16.4331C8.81588 16.5503 8.75003 16.7092 8.75003 16.875V18.125C8.75003 18.2908 8.81588 18.4497 8.93309 18.5669C9.0503 18.6842 9.20927 18.75 9.37503 18.75H11.875C12.0408 18.75 12.1998 18.6842 12.317 18.5669C12.4342 18.4497 12.5 18.2908 12.5 18.125V16.875C12.5 16.7092 12.4342 16.5503 12.317 16.4331C12.1998 16.3158 12.0408 16.25 11.875 16.25ZM6.87503 13.75H5.00003V1.875C5.00003 1.70924 4.93418 1.55027 4.81697 1.43306C4.69976 1.31585 4.54079 1.25 4.37503 1.25H3.12503C2.95927 1.25 2.8003 1.31585 2.68309 1.43306C2.56588 1.55027 2.50003 1.70924 2.50003 1.875V13.75H0.62503C0.0707332 13.75 -0.209735 14.4234 0.184014 14.8168L3.30901 18.5668C3.42621 18.6839 3.58512 18.7497 3.75081 18.7497C3.9165 18.7497 4.07541 18.6839 4.19261 18.5668L7.31761 14.8168C7.70901 14.4242 7.4305 13.75 6.87503 13.75ZM16.875 6.25H9.37503C9.20927 6.25 9.0503 6.31585 8.93309 6.43306C8.81588 6.55027 8.75003 6.70924 8.75003 6.875V8.125C8.75003 8.29076 8.81588 8.44973 8.93309 8.56694C9.0503 8.68415 9.20927 8.75 9.37503 8.75H16.875C17.0408 8.75 17.1998 8.68415 17.317 8.56694C17.4342 8.44973 17.5 8.29076 17.5 8.125V6.875C17.5 6.70924 17.4342 6.55027 17.317 6.43306C17.1998 6.31585 17.0408 6.25 16.875 6.25ZM14.375 11.25H9.37503C9.20927 11.25 9.0503 11.3158 8.93309 11.4331C8.81588 11.5503 8.75003 11.7092 8.75003 11.875V13.125C8.75003 13.2908 8.81588 13.4497 8.93309 13.5669C9.0503 13.6842 9.20927 13.75 9.37503 13.75H14.375C14.5408 13.75 14.6998 13.6842 14.817 13.5669C14.9342 13.4497 15 13.2908 15 13.125V11.875C15 11.7092 14.9342 11.5503 14.817 11.4331C14.6998 11.3158 14.5408 11.25 14.375 11.25ZM19.375 1.25H9.37503C9.20927 1.25 9.0503 1.31585 8.93309 1.43306C8.81588 1.55027 8.75003 1.70924 8.75003 1.875V3.125C8.75003 3.29076 8.81588 3.44973 8.93309 3.56694C9.0503 3.68415 9.20927 3.75 9.37503 3.75H19.375C19.5408 3.75 19.6998 3.68415 19.817 3.56694C19.9342 3.44973 20 3.29076 20 3.125V1.875C20 1.70924 19.9342 1.55027 19.817 1.43306C19.6998 1.31585 19.5408 1.25 19.375 1.25Z" fill="#777777"/>
</g>
<defs>
<clipPath id="clip0">
<rect width="20" height="20" fill="white"/>
</clipPath>
</defs>
</svg>
