<svg width="18" height="18" fill="none" xmlns="http://www.w3.org/2000/svg"><path d="M17.666 6.547a1.129 1.129 0 00-1.054-.735h-4.565a.375.375 0 01-.354-.25L10.053.916a1.125 1.125 0 00-2.107 0l-.003.012L6.308 5.56a.375.375 0 01-.354.25H1.388A1.125 1.125 0 00.665 7.8l3.888 3.225a.375.375 0 01.117.407l-1.634 4.899a1.125 1.125 0 001.733 1.262l4.01-2.94a.375.375 0 01.442 0l4.008 2.94a1.126 1.126 0 001.734-1.262l-1.633-4.902a.375.375 0 01.116-.407l3.896-3.23a1.124 1.124 0 00.324-1.245z" fill="#F9423A"/></svg>