<svg width="25" height="24" fill="none" xmlns="http://www.w3.org/2000/svg"><path d="M23.5 6a1 1 0 00-1-1H12a1 1 0 100 2h10.5a1 1 0 001-1zM1.5 7h2.675a3 3 0 100-2H1.5a1 1 0 000 2zM7 5a1 1 0 110 2 1 1 0 010-2zM22.5 11h-3.675a3 3 0 100 2H22.5a1 1 0 000-2zM16 13a1 1 0 110-2.002A1 1 0 0116 13zM11 11H1.5a1 1 0 000 2H11a1 1 0 000-2zM22.5 17H14a1 1 0 000 2h8.5a1 1 0 000-2zM9 15a3 3 0 00-2.825 2H1.5a1 1 0 000 2h4.675A3 3 0 109 15zm0 4a1 1 0 110-2 1 1 0 010 2z" fill="#444"/><path fill-rule="evenodd" clip-rule="evenodd" d="M17.5 16a7.5 7.5 0 110-15 7.5 7.5 0 010 15z" fill="#F9423A"/><path d="M14 8.778L16.381 11l4.286-4" stroke="#fff" stroke-width="2" stroke-miterlimit="10" stroke-linecap="round" stroke-linejoin="round"/></svg>