<svg width="92" height="124" fill="none" xmlns="http://www.w3.org/2000/svg"><path d="M70.375 39.656V25.438C70.375 11.976 59.461 1.063 46 1.063S21.625 11.976 21.625 25.438v14.218M82.563 122.938H9.436a8.126 8.126 0 01-8.124-8.126V57.938a8.125 8.125 0 018.124-8.126h73.126a8.125 8.125 0 018.124 8.126v56.874a8.126 8.126 0 01-8.124 8.126zM46 92.469v12.187" stroke="#777" stroke-width="2" stroke-miterlimit="10" stroke-linecap="square"/><path d="M46 92.469c6.731 0 12.188-5.457 12.188-12.188 0-6.73-5.457-12.187-12.188-12.187-6.731 0-12.188 5.456-12.188 12.187 0 6.731 5.457 12.188 12.188 12.188z" stroke="#777" stroke-width="2" stroke-miterlimit="10" stroke-linecap="square"/></svg>