<svg width="133" height="37" viewBox="0 0 133 37" fill="none" xmlns="http://www.w3.org/2000/svg"><path fill-rule="evenodd" clip-rule="evenodd" d="M29.048 31c4.997 0 9.047-4.253 9.047-9.5s-4.05-9.5-9.047-9.5C24.05 12 20 16.253 20 21.5s4.05 9.5 9.048 9.5z" fill="#F9423A"/><path d="M30.485 21.236L32.2 27h-6l1.715-5.764c-1.014-.442-1.715-1.389-1.715-2.486 0-1.519 1.343-2.75 3-2.75s3 1.231 3 2.75c0 1.097-.701 2.044-1.715 2.486z" fill="#fff"/><path d="M6.703 9.297v6.328c.542-.625 1.068-1.12 1.578-1.484A5.669 5.669 0 0110 13.328a6.983 6.983 0 012.016-.281c1.083 0 2.041.229 2.875.687a4.894 4.894 0 011.984 2c.302.51.505 1.084.61 1.72.104.624.156 1.348.156 2.171v8.172c0 .854-.198 1.5-.594 1.937-.386.438-.901.657-1.547.657-1.406 0-2.11-.865-2.11-2.594v-7.203c0-1.365-.203-2.412-.609-3.14-.406-.74-1.177-1.11-2.312-1.11-.76 0-1.448.218-2.063.656-.604.427-1.057 1.016-1.36 1.766-.228.635-.343 1.765-.343 3.39v5.64c0 .845-.193 1.49-.578 1.938-.375.438-.901.657-1.578.657-1.406 0-2.11-.865-2.11-2.594v-18.5c0-.865.183-1.51.547-1.938.375-.437.896-.656 1.563-.656.677 0 1.203.219 1.578.656.385.438.578 1.084.578 1.938zm48.766 12.734v5.672c0 .896-.203 1.568-.61 2.016-.406.448-.942.672-1.609.672-.646 0-1.172-.224-1.578-.672-.396-.448-.594-1.12-.594-2.016v-6.797c0-1.073-.036-1.906-.11-2.5-.072-.593-.27-1.078-.593-1.453-.323-.385-.833-.578-1.531-.578-1.396 0-2.318.48-2.766 1.438-.437.958-.656 2.333-.656 4.125v5.765c0 .886-.203 1.557-.61 2.016-.395.448-.921.672-1.578.672-.645 0-1.177-.224-1.593-.672-.407-.459-.61-1.13-.61-2.016V15.5c0-.802.183-1.412.547-1.828.375-.417.865-.625 1.469-.625.583 0 1.068.198 1.453.594.396.385.594.921.594 1.609v.406c.74-.885 1.531-1.536 2.375-1.953.843-.416 1.781-.625 2.812-.625 1.073 0 1.995.214 2.766.64.77.428 1.406 1.074 1.906 1.938.719-.875 1.49-1.52 2.313-1.937.823-.427 1.734-.64 2.734-.64 1.167 0 2.172.228 3.016.687a4.374 4.374 0 011.89 1.968c.365.771.547 1.985.547 3.641v8.328c0 .896-.203 1.568-.61 2.016-.406.448-.942.672-1.609.672-.645 0-1.177-.224-1.593-.672-.407-.459-.61-1.13-.61-2.016v-7.172c0-.916-.041-1.65-.125-2.203-.073-.552-.281-1.015-.625-1.39-.343-.375-.864-.563-1.562-.563-.563 0-1.1.167-1.61.5-.5.333-.89.781-1.172 1.344-.312.718-.468 1.99-.468 3.812zm26.031.735h-8.344c.01.968.203 1.823.578 2.562.386.74.891 1.297 1.516 1.672a4.044 4.044 0 002.094.563c.51 0 .974-.058 1.39-.172a4.865 4.865 0 001.235-.563A9.98 9.98 0 0081.063 26a51.96 51.96 0 001.296-1.188c.22-.187.532-.28.938-.28.437 0 .791.119 1.062.359s.407.578.407 1.015c0 .386-.151.839-.454 1.36-.302.51-.76 1.005-1.374 1.484-.605.469-1.37.86-2.297 1.172-.917.312-1.974.469-3.172.469-2.74 0-4.87-.782-6.39-2.344-1.522-1.563-2.282-3.682-2.282-6.36 0-1.26.187-2.427.562-3.5.375-1.083.922-2.01 1.641-2.78.719-.772 1.604-1.36 2.656-1.766 1.052-.417 2.219-.625 3.5-.625 1.667 0 3.094.354 4.281 1.062 1.198.698 2.094 1.604 2.688 2.719.594 1.114.89 2.25.89 3.406 0 1.073-.307 1.771-.921 2.094-.615.312-1.48.469-2.594.469zm-8.344-2.422h7.735c-.105-1.459-.5-2.547-1.188-3.266-.677-.729-1.573-1.094-2.687-1.094-1.063 0-1.938.37-2.625 1.11-.678.729-1.089 1.812-1.235 3.25zM89.86 30.39a2.432 2.432 0 01-1.671-.625c-.47-.417-.704-1-.704-1.75 0-.636.224-1.183.672-1.641.448-.458 1-.688 1.656-.688.657 0 1.214.23 1.672.688.47.448.704.995.704 1.64 0 .74-.235 1.323-.704 1.75-.458.417-1 .626-1.625.626zm22.5-5.282c0 .532-.161 1.1-.484 1.703-.313.605-.797 1.183-1.453 1.735-.646.541-1.464.979-2.453 1.312-.99.334-2.104.5-3.344.5-2.635 0-4.693-.765-6.172-2.297-1.479-1.541-2.219-3.604-2.219-6.187 0-1.75.339-3.297 1.016-4.64.677-1.344 1.656-2.38 2.938-3.11 1.281-.74 2.812-1.11 4.593-1.11 1.104 0 2.115.162 3.031.485.928.323 1.709.74 2.344 1.25.646.51 1.136 1.057 1.469 1.64.344.573.516 1.11.516 1.61 0 .51-.193.943-.579 1.297-.374.354-.833.531-1.374.531-.355 0-.652-.088-.891-.265-.229-.188-.49-.485-.781-.891-.521-.792-1.068-1.386-1.641-1.781-.563-.396-1.281-.594-2.156-.594-1.261 0-2.276.495-3.047 1.484-.771.98-1.156 2.323-1.156 4.032 0 .802.099 1.541.296 2.218a5.12 5.12 0 00.86 1.719c.375.469.828.828 1.359 1.078.531.24 1.115.36 1.75.36.854 0 1.584-.198 2.188-.594.614-.396 1.156-1 1.625-1.813.26-.479.541-.854.844-1.125.302-.27.671-.406 1.109-.406.521 0 .953.198 1.297.594.344.396.515.817.515 1.265zm14.516 2.875c-1.031.802-2.031 1.407-3 1.813-.958.396-2.036.594-3.234.594-1.094 0-2.058-.214-2.891-.641-.823-.438-1.458-1.026-1.906-1.766a4.56 4.56 0 01-.672-2.406c0-1.166.37-2.161 1.109-2.984.74-.823 1.755-1.375 3.047-1.657.271-.062.943-.203 2.016-.421a104.06 104.06 0 002.75-.594 58.76 58.76 0 002.5-.672c-.052-1.125-.282-1.948-.688-2.469-.396-.531-1.224-.797-2.484-.797-1.083 0-1.901.151-2.453.454-.542.302-1.011.755-1.407 1.359-.385.604-.661 1.005-.828 1.203-.156.188-.5.281-1.031.281a1.86 1.86 0 01-1.25-.453 1.534 1.534 0 01-.515-1.187c0-.75.265-1.48.796-2.188.532-.708 1.36-1.291 2.485-1.75 1.125-.458 2.526-.687 4.203-.687 1.875 0 3.349.224 4.422.671 1.073.438 1.828 1.136 2.265 2.094.448.959.672 2.23.672 3.813 0 1-.005 1.849-.015 2.547 0 .698-.006 1.474-.016 2.328 0 .802.13 1.64.391 2.515.27.865.406 1.422.406 1.672 0 .438-.208.839-.625 1.203-.406.354-.87.532-1.391.532-.437 0-.87-.203-1.297-.61-.427-.416-.88-1.015-1.359-1.797zm-.281-6.172c-.625.23-1.537.474-2.735.735-1.187.25-2.01.437-2.468.562-.459.115-.896.35-1.313.703-.417.344-.625.829-.625 1.454 0 .646.245 1.198.735 1.656.489.448 1.13.672 1.921.672.844 0 1.62-.183 2.329-.547.718-.375 1.244-.854 1.578-1.438.385-.646.578-1.708.578-3.187v-.61z" fill="#F9423A"/></svg>