<svg width="0" height="0" style="position:absolute"><symbol fill="none" viewBox="0 0 19 20" id="ico-airplane" xmlns="http://www.w3.org/2000/svg"><path d="M19 14v-2l-8-5V1.5C11 .67 10.33 0 9.5 0S8 .67 8 1.5V7l-8 5v2l8-2.5V17l-2 1.5V20l3.5-1 3.5 1v-1.5L11 17v-5.5l8 2.5z" fill="#111"/></symbol><symbol fill="none" viewBox="0 0 9 16" id="ico-arrow-1" xmlns="http://www.w3.org/2000/svg"><path d="M1 1.667l6.667 6.666L1 15" stroke="#444" stroke-width="2" stroke-miterlimit="10" stroke-linecap="round" stroke-linejoin="round"/></symbol><symbol fill="none" viewBox="0 0 15 9" id="ico-arrow-2" xmlns="http://www.w3.org/2000/svg"><path d="M7.5 9L0 1.713 1.762 0 7.5 5.563 13.238 0 15 1.713 7.5 9z" fill="#999"/></symbol><symbol fill="none" viewBox="0 0 10 16" id="ico-arrow-3" xmlns="http://www.w3.org/2000/svg"><path d="M8.334 1.333L1.667 8l6.667 6.667" stroke="#111" stroke-width="2" stroke-miterlimit="10" stroke-linecap="round" stroke-linejoin="round"/></symbol><symbol fill="none" viewBox="0 0 11 7" id="ico-arrow-4" xmlns="http://www.w3.org/2000/svg"><path d="M9.5 1.5l-4 4-4-4" stroke="#111" stroke-width="1.5" stroke-miterlimit="10" stroke-linecap="round" stroke-linejoin="round"/></symbol><symbol fill="none" viewBox="0 0 11 7" id="ico-arrow-5" xmlns="http://www.w3.org/2000/svg"><path d="M9.5 1.5l-4 4-4-4" stroke="#111" stroke-width="1.5" stroke-miterlimit="10" stroke-linecap="round" stroke-linejoin="round"/></symbol><symbol fill="none" viewBox="0 0 11 8" id="ico-arrow-back" xmlns="http://www.w3.org/2000/svg"><path d="M.646 3.646a.5.5 0 000 .708l3.182 3.182a.5.5 0 10.708-.708L1.707 4l2.829-2.828a.5.5 0 10-.708-.708L.646 3.646zM11 3.5H1v1h10v-1z" fill="#000"/></symbol><symbol fill="none" viewBox="0 0 22 30" id="ico-arrow-left" xmlns="http://www.w3.org/2000/svg"><path d="M18 3.152L6.297 14.87 18 26.587l-3.149 3.152L0 14.87 14.851 0 18 3.152z" fill="#fff"/></symbol><symbol fill="none" viewBox="0 0 22 23" id="ico-arrow-reset" xmlns="http://www.w3.org/2000/svg"><path d="M21 12c0 5.5-4.5 10-10 10S1 17.5 1 12 5.5 2 11 2c3.9 0 7.3 2.2 8.9 5.5" stroke="#F9423A" stroke-width="1.5" stroke-miterlimit="10" stroke-linecap="round" stroke-linejoin="round"/><path d="M20.8 1.7L20 7.6l-6-.8" stroke="#F9423A" stroke-width="1.5" stroke-miterlimit="10" stroke-linecap="round" stroke-linejoin="round"/></symbol><symbol fill="none" viewBox="0 0 22 30" id="ico-arrow-right" xmlns="http://www.w3.org/2000/svg"><path d="M0 3.152L11.703 14.87 0 26.587l3.149 3.152L18 14.87 3.149 0 0 3.152z" fill="#fff"/></symbol><symbol fill="none" viewBox="0 0 18 30" id="ico-arrow-right_copy" xmlns="http://www.w3.org/2000/svg"><path d="M0 3.152L11.703 14.87 0 26.587l3.149 3.152L18 14.87 3.149 0 0 3.152z" fill="#fff"/></symbol><symbol fill="none" viewBox="0 0 12 6" id="ico-arrow-small" xmlns="http://www.w3.org/2000/svg"><path d="M.5.2L6 5.7 11.5.2H.5z" fill="#F32C1F"/></symbol><symbol fill="none" viewBox="0 0 38 28" id="ico-arrow-up" xmlns="http://www.w3.org/2000/svg"><path d="M20.768 1.232a2.5 2.5 0 00-3.536 0l-15.91 15.91a2.5 2.5 0 003.536 3.536L19 6.536l14.142 14.142a2.5 2.5 0 003.536-3.536l-15.91-15.91zM21.5 28V3h-5v25h5z" fill="#4FD6B5"/></symbol><symbol fill="none" viewBox="0 0 22 19" id="ico-bag" xmlns="http://www.w3.org/2000/svg"><path fill-rule="evenodd" clip-rule="evenodd" d="M16.21 7L11.83.44A.993.993 0 0011 .02c-.32 0-.64.14-.83.43L5.79 7H1c-.55 0-1 .45-1 1 0 .09.01.18.04.27l2.54 9.27c.23.84 1 1.46 1.92 1.46h13c.92 0 1.69-.62 1.93-1.46l2.54-9.27L22 8c0-.55-.45-1-1-1h-4.79zM8 7l3-4.4L14 7H8zm1 6c0 1.1.9 2 2 2s2-.9 2-2-.9-2-2-2-2 .9-2 2z" fill="#0E7D8C"/></symbol><symbol fill="none" viewBox="0 0 19 21" id="ico-bank" xmlns="http://www.w3.org/2000/svg"><path fill-rule="evenodd" clip-rule="evenodd" d="M0 5l9.5-5L19 5v2H0V5zm2 4v7h3V9H2zm6 0v7h3V9H8zm11 9v3H0v-3h19zm-5-9v7h3V9h-3z" fill="#0E7D8C"/></symbol><symbol fill="none" viewBox="0 0 18 20" id="ico-bars-solid" xmlns="http://www.w3.org/2000/svg"><g clip-path="url(#apclip0)"><path d="M.623 5.156h16.193c.344 0 .623-.28.623-.625V2.97a.624.624 0 00-.623-.625H.623A.624.624 0 000 2.969V4.53c0 .345.279.625.623.625zm0 6.25h16.193c.344 0 .623-.28.623-.625V9.22a.624.624 0 00-.623-.625H.623A.624.624 0 000 9.219v1.562c0 .345.279.625.623.625zm0 6.25h16.193c.344 0 .623-.28.623-.625V15.47a.624.624 0 00-.623-.625H.623a.624.624 0 00-.623.625v1.562c0 .345.279.625.623.625z" fill="#777"/></g><defs><clipPath id="apclip0"><path fill="#fff" d="M0 0h17.439v20H0z"/></clipPath></defs></symbol><symbol fill="none" viewBox="0 0 14 16" id="ico-bath" xmlns="http://www.w3.org/2000/svg"><path d="M5.5 5.5a5 5 0 00-5 5h10a5 5 0 00-5-5z" stroke="#111" stroke-linecap="round" stroke-linejoin="round"/><path d="M5.5 5.5v-1a4 4 0 014-4v0a4 4 0 014 4v11m-11-3v1m3 1v1m3-3v1" stroke="#111" stroke-linecap="round" stroke-linejoin="round"/></symbol><symbol fill="none" viewBox="0 0 24 24" id="ico-bath-tub" xmlns="http://www.w3.org/2000/svg"><path d="M18 13V4.5A3.5 3.5 0 0014.5 1v0A3.5 3.5 0 0011 4.5V5M6 20v3m12-3v3M1 13v3a4 4 0 004 4h14a4 4 0 004-4v-3H1z" stroke="#111" stroke-width="1.5" stroke-miterlimit="10" stroke-linecap="round" stroke-linejoin="round"/></symbol><symbol fill="none" viewBox="0 0 16 13" id="ico-bed" xmlns="http://www.w3.org/2000/svg"><path d="M.5 7.5h15m-13-3h11m0 0v-4h-11v4l-2 3v3h15v-3l-2-3zm-13 8v-2m15 2v-2" stroke="#111" stroke-linecap="round" stroke-linejoin="round"/></symbol><symbol fill="none" viewBox="0 0 24 19" id="ico-bed-2" xmlns="http://www.w3.org/2000/svg"><path d="M1 14v4m22-4v4m0-10H1v6h22V8zM3 8V1m18 7V1M3 3h18m-9 5V3" stroke="#111" stroke-width="1.5" stroke-miterlimit="10" stroke-linecap="round" stroke-linejoin="round"/></symbol><symbol fill="none" viewBox="0 0 18 20" id="ico-bell-solid" xmlns="http://www.w3.org/2000/svg"><g clip-path="url(#auclip0)"><path d="M8.719 20c1.375 0 2.49-1.12 2.49-2.5h-4.98c0 1.38 1.115 2.5 2.49 2.5zm8.384-5.848c-.752-.811-2.16-2.03-2.16-6.027 0-3.035-2.12-5.465-4.98-6.06V1.25C9.964.56 9.407 0 8.72 0 8.03 0 7.474.56 7.474 1.25v.814c-2.86.596-4.98 3.026-4.98 6.061 0 3.996-1.407 5.216-2.16 6.027A1.223 1.223 0 000 15c.005.64.506 1.25 1.25 1.25h14.94c.744 0 1.245-.61 1.25-1.25a1.222 1.222 0 00-.336-.848z" fill="#777"/></g><defs><clipPath id="auclip0"><path fill="#fff" d="M0 0h17.439v20H0z"/></clipPath></defs></symbol><symbol fill="none" viewBox="0 0 18 20" id="ico-bell-solid-active" xmlns="http://www.w3.org/2000/svg"><g clip-path="url(#avclip0)"><path d="M8.719 20c1.375 0 2.49-1.12 2.49-2.5h-4.98c0 1.38 1.115 2.5 2.49 2.5zm8.384-5.848c-.752-.811-2.16-2.03-2.16-6.027 0-3.035-2.12-5.465-4.98-6.06V1.25C9.964.56 9.407 0 8.72 0 8.03 0 7.474.56 7.474 1.25v.814c-2.86.596-4.98 3.026-4.98 6.061 0 3.996-1.407 5.216-2.16 6.027A1.223 1.223 0 000 15c.005.64.506 1.25 1.25 1.25h14.94c.744 0 1.245-.61 1.25-1.25a1.222 1.222 0 00-.336-.848z" fill="#777"/><circle cx="12" cy="6" r="4.5" fill="#F9423A" stroke="#fff"/></g><defs><clipPath id="avclip0"><path fill="#fff" d="M0 0h17.439v20H0z"/></clipPath></defs></symbol><symbol fill="none" viewBox="0 0 46 46" id="ico-buildings" xmlns="http://www.w3.org/2000/svg"><path d="M35 16V5H11v17m6 23h12M23 1v4m-6 22H1v18h16V27zm28-6H29v24h16V21zm-10 6h4m-4 6h4m-4 6h4M7 33h4m9-20h6M7 39h4" stroke="#111" stroke-width="1.5" stroke-miterlimit="10" stroke-linecap="round" stroke-linejoin="round"/></symbol><symbol fill="none" viewBox="0 0 16 19" id="ico-bus" xmlns="http://www.w3.org/2000/svg"><path d="M0 14c0 .88.39 1.67 1 2.22V18c0 .55.45 1 1 1h1c.55 0 1-.45 1-1v-1h8v1c0 .55.45 1 1 1h1c.55 0 1-.45 1-1v-1.78c.61-.55 1-1.34 1-2.22V4c0-3.5-3.58-4-8-4S0 .5 0 4v10zm3.5 1c-.83 0-1.5-.67-1.5-1.5S2.67 12 3.5 12s1.5.67 1.5 1.5S4.33 15 3.5 15zm9 0c-.83 0-1.5-.67-1.5-1.5s.67-1.5 1.5-1.5 1.5.67 1.5 1.5-.67 1.5-1.5 1.5zM14 9H2V4h12v5z" fill="#111"/></symbol><symbol fill="none" viewBox="0 0 24 23" id="ico-calendar" xmlns="http://www.w3.org/2000/svg"><path d="M1 8h22m-2-5H3a2 2 0 00-2 2v15a2 2 0 002 2h18a2 2 0 002-2V5a2 2 0 00-2-2zM6 1v3m12-3v3" stroke="#111" stroke-width="1.5" stroke-miterlimit="10" stroke-linecap="round" stroke-linejoin="round"/></symbol><symbol fill="none" viewBox="0 0 24 21" id="ico-camera" xmlns="http://www.w3.org/2000/svg"><path d="M6 0H2v2h4V0z" fill="#fff"/><path d="M22 3h-5l-2-3H9L7 3H2a2 2 0 00-2 2v14a2 2 0 002 2h20a2 2 0 002-2V5a2 2 0 00-2-2zM4 8a1 1 0 110-2 1 1 0 010 2zm8 9a5 5 0 110-9.999A5 5 0 0112 17z" fill="#fff"/><rect x="9" y="9" width="6" height="6" rx="3" fill="#fff"/></symbol><symbol fill="none" viewBox="0 0 24 24" id="ico-camera-2" xmlns="http://www.w3.org/2000/svg"><path d="M22.08 4.8h-3.803l-.548-1.371a2.388 2.388 0 00-2.229-1.51h-7A2.388 2.388 0 006.27 3.43L5.722 4.8H1.92A1.922 1.922 0 000 6.72v13.44a1.922 1.922 0 001.92 1.92h20.16A1.922 1.922 0 0024 20.16V6.72a1.922 1.922 0 00-1.92-1.92zM12 17.28a4.32 4.32 0 110-8.64 4.32 4.32 0 010 8.64z" fill="#F9423A"/></symbol><symbol fill="none" viewBox="0 0 16 16" id="ico-car" xmlns="http://www.w3.org/2000/svg"><path d="M5.5 2.5v-2h5v2m-6 11v2h-4v-2m15 0v2h-4v-2m4 0H.5V9.914a1 1 0 01.293-.707L1.5 8.5h13l.707.707a1 1 0 01.293.707V13.5z" stroke="#444" stroke-miterlimit="10" stroke-linecap="round" stroke-linejoin="round"/><path d="M3 12a1 1 0 100-2 1 1 0 000 2zm10 0a1 1 0 100-2 1 1 0 000 2z" fill="#444"/><path d="M1.5 8.5l.861-5.164a.999.999 0 01.986-.836h9.306c.489 0 .906.353.986.836L14.5 8.5" stroke="#444" stroke-miterlimit="10" stroke-linecap="round" stroke-linejoin="round"/></symbol><symbol fill="none" viewBox="0 0 24 24" id="ico-cart" xmlns="http://www.w3.org/2000/svg"><path fill-rule="evenodd" clip-rule="evenodd" d="M1 2v2h2l3.6 7.59-1.35 2.45c-.16.28-.25.61-.25.96 0 1.1.9 2 2 2h12v-2H7.42c-.14 0-.25-.11-.25-.25l.03-.12.9-1.63h7.45c.75 0 1.41-.41 1.75-1.03l3.58-6.49A1.003 1.003 0 0020 4H5.21l-.94-2H1zm6 16c-1.1 0-1.99.9-1.99 2S5.9 22 7 22s2-.9 2-2-.9-2-2-2zm8.01 2c0-1.1.89-2 1.99-2s2 .9 2 2-.9 2-2 2-1.99-.9-1.99-2z" fill="#0E7D8C"/></symbol><symbol fill="none" viewBox="0 0 12 8" id="ico-check" xmlns="http://www.w3.org/2000/svg"><path d="M1 3.667L4.571 7 11 1" stroke="#F9423A" stroke-width="2" stroke-miterlimit="10" stroke-linecap="round" stroke-linejoin="round"/></symbol><symbol fill="none" viewBox="0 0 20 20" id="ico-check-circle" xmlns="http://www.w3.org/2000/svg"><path d="M10 0a10 10 0 1010 10A10.03 10.03 0 0010 0zM8.333 14.512L3.822 10 5 8.822l3.333 3.333L15 5.488l1.178 1.179-7.845 7.845z" fill="#38C860"/></symbol><symbol fill="none" viewBox="0 0 12 8" id="ico-check-white" xmlns="http://www.w3.org/2000/svg"><path d="M1 3.667L4.571 7 11 1" stroke="#fff" stroke-width="2" stroke-miterlimit="10" stroke-linecap="round" stroke-linejoin="round"/></symbol><symbol fill="none" viewBox="0 0 18 19" id="ico-city" xmlns="http://www.w3.org/2000/svg"><path d="M12 9V3L9 0 6 3v2H0v14h18V9h-6zm-8 8H2v-2h2v2zm0-4H2v-2h2v2zm0-4H2V7h2v2zm6 8H8v-2h2v2zm0-4H8v-2h2v2zm0-4H8V7h2v2zm0-4H8V3h2v2zm6 12h-2v-2h2v2zm0-4h-2v-2h2v2z" fill="#111"/></symbol><symbol fill="none" viewBox="0 0 14 14" id="ico-clock" xmlns="http://www.w3.org/2000/svg"><path d="M7 .583a6.417 6.417 0 100 12.834A6.417 6.417 0 007 .583zM7 12.25a5.25 5.25 0 110-10.5 5.25 5.25 0 010 10.5z" fill="#777"/><path d="M7.583 6.758V3.5a.583.583 0 00-1.166 0v3.504a.57.57 0 00.011.11c.004.018.01.034.015.052.006.019.01.038.018.057.009.02.02.039.03.058.008.014.015.029.024.043a.568.568 0 00.073.09l1.65 1.649a.584.584 0 00.824-.825l-1.479-1.48z" fill="#777"/></symbol><symbol fill="none" viewBox="0 0 10 10" id="ico-close" xmlns="http://www.w3.org/2000/svg"><path d="M9 1L1 9m0-8l8 8" stroke="#999" stroke-width="2" stroke-miterlimit="10" stroke-linecap="round" stroke-linejoin="round"/></symbol><symbol fill="none" viewBox="0 0 8 8" id="ico-close-small" xmlns="http://www.w3.org/2000/svg"><path d="M7.5.5l-7 7m0-7l7 7" stroke="#444" stroke-miterlimit="10" stroke-linecap="round" stroke-linejoin="round"/></symbol><symbol fill="none" viewBox="0 0 16 16" id="ico-close-white" xmlns="http://www.w3.org/2000/svg"><path d="M1.636 14.364L14.364 1.636m-12.728 0l12.728 12.728" stroke="#fff" stroke-width="2" stroke-linecap="round" stroke-linejoin="round"/></symbol><symbol fill="none" viewBox="0 0 16 16" id="ico-crosshair" xmlns="http://www.w3.org/2000/svg"><path d="M8 15A7 7 0 108 1a7 7 0 000 14zM8 3V1m5 7h2m-7 5v2M3 8H1" stroke="#F9423A" stroke-linecap="round" stroke-linejoin="round"/><path d="M8 10a2 2 0 100-4 2 2 0 000 4z" stroke="#F9423A" stroke-linecap="round" stroke-linejoin="round"/></symbol><symbol fill="none" viewBox="0 0 20 18" id="ico-cup" xmlns="http://www.w3.org/2000/svg"><path fill-rule="evenodd" clip-rule="evenodd" d="M18 0H2v10c0 2.21 1.79 4 4 4h6c2.21 0 4-1.79 4-4V7h2c1.11 0 2-.89 2-2V2c0-1.11-.89-2-2-2zm0 5h-2V2h2v3zm0 13H0v-2h18v2z" fill="#0E7D8C"/></symbol><symbol fill="none" viewBox="0 0 15 16" id="ico-cycling" xmlns="http://www.w3.org/2000/svg"><path d="M3 15.5a2.5 2.5 0 100-5 2.5 2.5 0 000 5zm9 0a2.5 2.5 0 100-5 2.5 2.5 0 000 5z" stroke="#444" stroke-linecap="round" stroke-linejoin="round"/><path d="M7.5 14.5v-4L5.515 9.177a1 1 0 01-.152-1.539l2.274-2.275a1 1 0 011.54.152L10.5 7.5h3m-2.5-4a1.5 1.5 0 100-3 1.5 1.5 0 000 3z" stroke="#444" stroke-linecap="round" stroke-linejoin="round"/></symbol><symbol fill="none" viewBox="0 0 18 18" id="ico-drink" xmlns="http://www.w3.org/2000/svg"><path fill-rule="evenodd" clip-rule="evenodd" d="M18 0v2l-8 9v5h5v2H3v-2h5v-5L0 2V0h18zM2.66 2l1.77 2h9.14l1.78-2H2.66z" fill="#0E7D8C"/></symbol><symbol fill="none" viewBox="0 0 24 24" id="ico-facebook" xmlns="http://www.w3.org/2000/svg"><path d="M22 0H2a2 2 0 00-2 2v20a2 2 0 002 2h11v-9h-3v-4h3V8.413c0-3.1 1.893-4.788 4.659-4.788 1.325 0 2.463.099 2.795.143v3.24l-1.918.001c-1.504 0-1.795.715-1.795 1.763V11h4.44l-1 4h-3.44v9H22a2 2 0 002-2V2a2 2 0 00-2-2z" fill="#3376E3"/></symbol><symbol fill="none" viewBox="0 0 16 16" id="ico-filter" xmlns="http://www.w3.org/2000/svg"><path d="M15 0H1C.4 0 0 .4 0 1v2c0 .3.1.6.4.8L6 8.5V15c0 .4.2.8.6.9.1.1.3.1.4.1.3 0 .5-.1.7-.3l2-2c.2-.2.3-.4.3-.7V8.5l5.6-4.7c.3-.2.4-.5.4-.8V1c0-.6-.4-1-1-1z" fill="#F9423A"/></symbol><symbol fill="none" viewBox="0 0 25 24" id="ico-filter-check" xmlns="http://www.w3.org/2000/svg"><path d="M23.5 6a1 1 0 00-1-1H12a1 1 0 100 2h10.5a1 1 0 001-1zm-22 1h2.675a3 3 0 100-2H1.5a1 1 0 000 2zM7 5a1 1 0 110 2 1 1 0 010-2zm15.5 6h-3.675a3 3 0 100 2H22.5a1 1 0 000-2zM16 13a1 1 0 110-2.002A1 1 0 0116 13zm-5-2H1.5a1 1 0 000 2H11a1 1 0 000-2zm11.5 6H14a1 1 0 000 2h8.5a1 1 0 000-2zM9 15a3 3 0 00-2.825 2H1.5a1 1 0 000 2h4.675A3 3 0 109 15zm0 4a1 1 0 110-2 1 1 0 010 2z" fill="#444"/><path fill-rule="evenodd" clip-rule="evenodd" d="M17.5 16a7.5 7.5 0 110-15 7.5 7.5 0 010 15z" fill="#F9423A"/><path d="M14 8.778L16.381 11l4.286-4" stroke="#fff" stroke-width="2" stroke-miterlimit="10" stroke-linecap="round" stroke-linejoin="round"/></symbol><symbol fill="none" viewBox="0 0 24 24" id="ico-filter-sort" xmlns="http://www.w3.org/2000/svg"><path d="M23.5 6a1 1 0 00-1-1H12a1 1 0 100 2h10.5a1 1 0 001-1zm-22 1h2.675a3 3 0 100-2H1.5a1 1 0 100 2zM7 5a1 1 0 110 2 1 1 0 010-2zm15.5 6h-3.675a3 3 0 100 2H22.5a1 1 0 000-2zM16 13a1 1 0 110-2 1 1 0 010 2zm-5-2H1.5a1 1 0 000 2H11a1 1 0 000-2zm11.5 6H14a1 1 0 000 2h8.5a1 1 0 000-2zM9 15a3 3 0 00-2.825 2H1.5a1 1 0 000 2h4.675A3 3 0 109 15zm0 4a1 1 0 110-2 1 1 0 010 2z" fill="#444"/></symbol><symbol fill="none" viewBox="0 0 20 20" id="ico-fitness" xmlns="http://www.w3.org/2000/svg"><path d="M18.57 12.86L20 11.43 18.57 10 15 13.57 6.43 5 10 1.43 8.57 0 7.14 1.43 5.71 0 3.57 2.14 2.14.71.71 2.14l1.43 1.43L0 5.71l1.43 1.43L0 8.57 1.43 10 5 6.43 13.57 15 10 18.57 11.43 20l1.43-1.43L14.29 20l2.14-2.14 1.43 1.43 1.43-1.43-1.43-1.43L20 14.29l-1.43-1.43z" fill="#0E7D8C"/></symbol><symbol fill="none" viewBox="0 0 17 18" id="ico-gas" xmlns="http://www.w3.org/2000/svg"><path fill-rule="evenodd" clip-rule="evenodd" d="M15.77 4.23l.01-.01L12.06.5 11 1.56l2.11 2.11c-.94.36-1.61 1.26-1.61 2.33A2.5 2.5 0 0014 8.5c.36 0 .69-.08 1-.21v7.21c0 .55-.45 1-1 1s-1-.45-1-1V11c0-1.1-.9-2-2-2h-1V2c0-1.1-.9-2-2-2H2C.9 0 0 .9 0 2v16h10v-7.5h1.5v5a2.5 2.5 0 005 0V6c0-.69-.28-1.32-.73-1.77zM8 7H2V2h6v5zm5-1c0 .55.45 1 1 1s1-.45 1-1-.45-1-1-1-1 .45-1 1z" fill="#0E7D8C"/></symbol><symbol fill="none" viewBox="0 0 24 24" id="ico-gear" xmlns="http://www.w3.org/2000/svg"><path d="M23 12a2 2 0 00-2-2h-1.262a7.968 7.968 0 00-.852-2.058l.892-.892a2 2 0 10-2.828-2.828l-.892.892A7.968 7.968 0 0014 4.262V3a2 2 0 00-4 0v1.262a7.968 7.968 0 00-2.058.852l-.892-.892A2 2 0 104.222 7.05l.892.892A7.968 7.968 0 004.262 10H3a2 2 0 000 4h1.262c.189.732.477 1.422.852 2.058l-.892.892a2 2 0 102.828 2.828l.892-.892a7.953 7.953 0 002.058.852V21a2 2 0 004 0v-1.262a7.968 7.968 0 002.058-.852l.892.892a2 2 0 102.828-2.828l-.892-.892A7.953 7.953 0 0019.738 14H21a2 2 0 002-2z" stroke="#797a7a" stroke-width="1.5" stroke-miterlimit="10" stroke-linecap="round" stroke-linejoin="round"/><path d="M12 15a3 3 0 100-6 3 3 0 000 6z" stroke="#797a7a" stroke-width="1.5" stroke-miterlimit="10" stroke-linecap="round" stroke-linejoin="round"/></symbol><symbol fill="none" viewBox="0 0 24 24" id="ico-globe" xmlns="http://www.w3.org/2000/svg"><path d="M12 0C5.383 0 0 5.383 0 12s5.383 12 12 12 12-5.383 12-12S18.617 0 12 0zm0 22c-2.5 0-4.783-.929-6.538-2.451.008-.013.019-.024.026-.037 1.652-2.768.613-4.459-.154-5.221a7.115 7.115 0 00-.671-.568c-.622-.483-1.034-.802-1.034-1.723 0-.434.242-.604 1.437-1.012.822-.281 1.753-.599 2.354-1.376 1.395-1.804-.139-4.586-.461-5.126a9.065 9.065 0 00-.53-.786 9.945 9.945 0 015.225-1.683c.312.529.827.975 1.333 1.41.432.372 1.118.528 1.471.968.202.252.104.738.111 1.056.014.631.396 1.546 1.684 1.546.057 0 .116-.002.177-.006.498-.035 2.052-.391 3.614-.907A9.934 9.934 0 0122 12c0 5.514-4.486 10-10 10z" fill="#fff"/><path d="M15.514 8.903c-1.576 0-3.185.749-4.003 1.863-.549.748-.709 1.613-.451 2.436.515 1.642.565 2.61.243 3.695-.286.964-.314 2.362 1.319 3.028.308.126.646.19 1.002.19 1.214 0 2.651-.751 3.944-2.062 1.554-1.575 2.468-3.505 2.446-5.165-.03-2.234-2.007-3.985-4.5-3.985z" fill="#fff"/></symbol><symbol fill="none" viewBox="0 0 24 24" id="ico-globe-filled" xmlns="http://www.w3.org/2000/svg"><path d="M20.952 4.026a.5.5 0 00-.844.162L19 7.258A2 2 0 0117.39 8.5h-2.838a.5.5 0 00-.385.72l.885 2.28a.5.5 0 00.447.277h.83a.5.5 0 01.446.723L14 18.192a2.026 2.026 0 01-3.867-.249l-.99-4.167a.5.5 0 00-.448-.276H8.25a3.25 3.25 0 110-6.5h4.1a.5.5 0 00.5-.5V5.354A2 2 0 0011.6 3.5l-.284-.114a.5.5 0 01-.063-.9l2.721-1.4a.5.5 0 00-.15-.939A11.645 11.645 0 0012 0a12.026 12.026 0 108.953 4.026z" fill="#444"/></symbol><symbol fill="none" viewBox="0 0 20 20" id="ico-globe-solid" xmlns="http://www.w3.org/2000/svg"><g clip-path="url(#byclip0)"><path d="M9.695.313C4.341.313 0 4.65 0 10s4.34 9.688 9.695 9.688S19.39 15.35 19.39 10c0-5.35-4.34-9.688-9.695-9.688zm3.217 13.968l-.442.44a.933.933 0 00-.241.42c-.06.22-.107.444-.187.658l-.68 1.83a7.817 7.817 0 01-1.667.183v-1.069c.066-.493-.299-1.416-.885-2.002a1.25 1.25 0 01-.366-.884v-1.25c0-.455-.245-.873-.643-1.093a64.41 64.41 0 00-1.908-1.02 5.633 5.633 0 01-1.238-.85l-.031-.028a4.485 4.485 0 01-.706-.81c-.367-.538-.964-1.422-1.352-1.997A7.858 7.858 0 016.6 2.829l.939.469a.625.625 0 00.905-.56v-.44c.312-.051.63-.083.954-.095l1.106 1.105a.625.625 0 010 .884l-.183.183-.405.404a.312.312 0 000 .442l.184.183a.312.312 0 010 .442l-.313.312a.313.313 0 01-.221.092h-.352a.313.313 0 00-.218.088l-.388.377a.313.313 0 00-.061.364l.609 1.218a.313.313 0 01-.28.453h-.22a.313.313 0 01-.205-.077l-.363-.315a.626.626 0 00-.608-.12l-1.218.405a.467.467 0 00-.061.86l.433.217c.368.184.774.28 1.185.28.411 0 .883 1.066 1.251 1.25h2.61c.331 0 .65.131.884.366l.535.534c.224.224.35.527.35.843a1.816 1.816 0 01-.537 1.288zm3.39-3.568a.938.938 0 01-.553-.39l-.703-1.053a.936.936 0 010-1.04l.766-1.148a.937.937 0 01.36-.318l.508-.253A7.747 7.747 0 0117.514 10c0 .339-.03.67-.071.998l-1.141-.285z" fill="#777"/></g><defs><clipPath id="byclip0"><path fill="#fff" d="M0 0h19.39v20H0z"/></clipPath></defs></symbol><symbol viewBox="0 0 26 24" id="ico-heart" xmlns="http://www.w3.org/2000/svg"><path d="M23.083 3.394c-2.556-2.525-6.701-2.525-9.257 0-.315.311-.59.646-.826.999a6.49 6.49 0 00-.826-1C9.618.87 5.474.87 2.917 3.394a6.411 6.411 0 000 9.146L13 22.5l10.084-9.961a6.411 6.411 0 000-9.145z" fill-opacity=".5" stroke="#fff" stroke-width="1.5" stroke-miterlimit="10" stroke-linecap="round" stroke-linejoin="round"/></symbol><symbol fill="none" viewBox="0 0 28 28" id="ico-heart-filled" xmlns="http://www.w3.org/2000/svg"><path d="M24.876 5.394c-2.61-2.525-6.84-2.525-9.45 0a6.505 6.505 0 00-.843.999 6.527 6.527 0 00-.843-1c-2.61-2.524-6.84-2.524-9.45 0a6.32 6.32 0 000 9.146L14.582 24.5l10.294-9.961a6.32 6.32 0 000-9.145z" fill="#F9423A" stroke="#fff" stroke-width="1.5" stroke-miterlimit="10" stroke-linecap="round" stroke-linejoin="round"/></symbol><symbol fill="none" viewBox="0 0 23 20" id="ico-heart-outlined" xmlns="http://www.w3.org/2000/svg"><path d="M20.323 2.623c-2.237-2.164-5.864-2.164-8.1 0a5.589 5.589 0 00-.723.857 5.595 5.595 0 00-.723-.857C8.541.46 4.914.46 2.677 2.623a5.417 5.417 0 000 7.838L11.5 19l8.824-8.539a5.417 5.417 0 000-7.838z" stroke="#111" stroke-width="1.5" stroke-miterlimit="10" stroke-linecap="round" stroke-linejoin="round"/></symbol><symbol fill="none" viewBox="0 0 20 20" id="ico-heart-solid" xmlns="http://www.w3.org/2000/svg"><g clip-path="url(#ccclip0)"><path d="M17.769 3.853c-1.864-1.804-4.886-1.804-6.75 0a4.65 4.65 0 00-.603.713 4.658 4.658 0 00-.602-.713c-1.864-1.804-4.886-1.804-6.75 0a4.514 4.514 0 000 6.532l7.352 7.115 7.353-7.115a4.514 4.514 0 000-6.532z" fill="#777" stroke="#777" stroke-width="1.5" stroke-miterlimit="10" stroke-linecap="round" stroke-linejoin="round"/></g><defs><clipPath id="ccclip0"><path fill="#fff" d="M0 0h20v20H0z"/></clipPath></defs></symbol><symbol fill="none" viewBox="0 0 16 16" id="ico-home" xmlns="http://www.w3.org/2000/svg"><path d="M15.5 7.5L8 .5l-7.5 7m2 1v7h4v-4h3v4h4v-7" stroke="#777" stroke-miterlimit="10" stroke-linecap="round" stroke-linejoin="round"/></symbol><symbol fill="none" viewBox="0 0 46 44" id="ico-house" xmlns="http://www.w3.org/2000/svg"><path d="M27 15h-8v8h8v-8z" stroke="#111" stroke-width="1.5" stroke-miterlimit="10" stroke-linecap="round" stroke-linejoin="round"/><path d="M1 19L23 1l22 18M18 43V31h10v12" stroke="#111" stroke-width="1.5" stroke-miterlimit="10" stroke-linecap="round" stroke-linejoin="round"/><path d="M6 22v21h34V22M8 13.273V5" stroke="#111" stroke-width="1.5" stroke-miterlimit="10" stroke-linecap="round" stroke-linejoin="round"/></symbol><symbol fill="none" viewBox="0 0 20 18" id="ico-image" xmlns="http://www.w3.org/2000/svg"><path d="M1.666 15.25l3.333-4.583L8.333 14l5.833-6.667 5 5.834" stroke="#111" stroke-width="1.2" stroke-miterlimit="10" stroke-linecap="round" stroke-linejoin="round"/><path d="M17.166 1.5H2.833a2 2 0 00-2 2v11a2 2 0 002 2h14.333a2 2 0 002-2v-11a2 2 0 00-2-2z" stroke="#111" stroke-width="1.2" stroke-miterlimit="10" stroke-linecap="round" stroke-linejoin="round"/><path d="M7.5 7.333A1.667 1.667 0 107.5 4a1.667 1.667 0 000 3.333z" stroke="#111" stroke-width="1.2" stroke-miterlimit="10" stroke-linecap="round" stroke-linejoin="round"/></symbol><symbol fill="none" viewBox="0 0 20 20" id="ico-info" xmlns="http://www.w3.org/2000/svg"><path fill-rule="evenodd" clip-rule="evenodd" d="M10 0C4.48 0 0 4.48 0 10s4.48 10 10 10 10-4.48 10-10S15.52 0 10 0zM9 15V9h2v6H9zM9 5v2h2V5H9z" fill="#0E7D8C"/></symbol><symbol fill="none" viewBox="0 0 22 22" id="ico-link" xmlns="http://www.w3.org/2000/svg"><path d="M13.242 8.758a6.01 6.01 0 00-1.659-1.169A1.99 1.99 0 0011 9c0 .213.04.415.102.608.259.161.505.343.726.564A3.977 3.977 0 0113 13a3.978 3.978 0 01-1.171 2.829l-3 2.999c-1.512 1.512-4.146 1.512-5.657 0A3.973 3.973 0 012 16c0-1.068.416-2.072 1.171-2.828l2.104-2.104A8.05 8.05 0 015 9c0-.162.013-.323.023-.483-.089.079-.18.156-.266.241l-3 3A5.959 5.959 0 000 16c0 1.603.624 3.109 1.757 4.242A5.96 5.96 0 006 22a5.96 5.96 0 004.243-1.758l3-2.999A5.967 5.967 0 0015 13a5.96 5.96 0 00-1.758-4.242z" fill="#444"/><path d="M20.243 1.758A5.96 5.96 0 0016 0a5.96 5.96 0 00-4.243 1.758l-3 2.999A5.967 5.967 0 007 9c0 1.603.624 3.109 1.757 4.242a6.01 6.01 0 001.659 1.169c.376-.377.584-.879.584-1.411 0-.218-.041-.425-.106-.622a3.7 3.7 0 01-.721-.55A3.974 3.974 0 019 9c0-1.068.416-2.073 1.171-2.829l3-2.999A3.975 3.975 0 0116 2c1.068 0 2.073.416 2.829 1.172A3.976 3.976 0 0120 6a3.976 3.976 0 01-1.171 2.828l-2.107 2.107C16.9 11.601 17 12.292 17 13c0 .162-.012.322-.021.482.089-.079.18-.155.265-.24l3-3A5.962 5.962 0 0022 6a5.959 5.959 0 00-1.757-4.242z" fill="#444"/></symbol><symbol fill="none" viewBox="0 0 24 24" id="ico-list" xmlns="http://www.w3.org/2000/svg"><path d="M23 11V3a2 2 0 00-2-2h-8v10h10zM11 1H3a2 2 0 00-2 2v8h10V1zM1 13v8a2 2 0 002 2h8V13H1zm12 10h8a2 2 0 002-2v-8H13v10z" fill="#444"/></symbol><symbol fill="none" viewBox="0 0 20 24" id="ico-lock" xmlns="http://www.w3.org/2000/svg"><path d="M17 10H3a2 2 0 00-2 2v9a2 2 0 002 2h14a2 2 0 002-2v-9a2 2 0 00-2-2z" stroke="#111" stroke-width="1.5" stroke-miterlimit="10" stroke-linecap="round" stroke-linejoin="round"/><path d="M10 19.5a2 2 0 100-4 2 2 0 000 4zm5-9.5V6.5a4.95 4.95 0 00-4.9-5H10a4.951 4.951 0 00-5 4.9V10" stroke="#111" stroke-width="1.5" stroke-miterlimit="10" stroke-linecap="round" stroke-linejoin="round"/></symbol><symbol fill="none" viewBox="0 0 92 124" id="ico-lock-stroke" xmlns="http://www.w3.org/2000/svg"><path d="M70.375 39.656V25.438C70.375 11.976 59.461 1.063 46 1.063S21.625 11.976 21.625 25.438v14.218m60.938 83.282H9.436a8.126 8.126 0 01-8.124-8.126V57.938a8.125 8.125 0 018.124-8.126h73.126a8.125 8.125 0 018.124 8.126v56.874a8.126 8.126 0 01-8.124 8.126zM46 92.469v12.187" stroke="#777" stroke-width="2" stroke-miterlimit="10" stroke-linecap="square"/><path d="M46 92.469c6.731 0 12.188-5.457 12.188-12.188 0-6.73-5.457-12.187-12.188-12.187-6.731 0-12.188 5.456-12.188 12.187 0 6.731 5.457 12.188 12.188 12.188z" stroke="#777" stroke-width="2" stroke-miterlimit="10" stroke-linecap="square"/></symbol><symbol fill="none" viewBox="0 0 24 21" id="ico-mail" xmlns="http://www.w3.org/2000/svg"><path d="M2.114 2.058L12.5 11.5l10.385-9.44" stroke="#111" stroke-width="1.5" stroke-miterlimit="10" stroke-linecap="round" stroke-linejoin="round"/><path d="M21.5 1.5h-18a2 2 0 00-2 2v14a2 2 0 002 2h18a2 2 0 002-2v-14a2 2 0 00-2-2z" stroke="#111" stroke-width="1.5" stroke-miterlimit="10" stroke-linecap="round" stroke-linejoin="round"/></symbol><symbol fill="none" viewBox="0 0 16 16" id="ico-mail-filled" xmlns="http://www.w3.org/2000/svg"><path d="M15 1H1c-.6 0-1 .4-1 1v1.4l8 4.5 8-4.4V2c0-.6-.4-1-1-1z" fill="#999"/><path d="M7.5 9.9L0 5.7V14c0 .6.4 1 1 1h14c.6 0 1-.4 1-1V5.7L8.5 9.9c-.28.14-.72.14-1 0z" fill="#999"/></symbol><symbol fill="none" viewBox="0 0 16 16" id="ico-mail-red" xmlns="http://www.w3.org/2000/svg"><path d="M15 1H1c-.6 0-1 .4-1 1v1.4l8 4.5 8-4.4V2c0-.6-.4-1-1-1z" fill="#f9423a"/><path d="M7.5 9.9L0 5.7V14c0 .6.4 1 1 1h14c.6 0 1-.4 1-1V5.7L8.5 9.9c-.28.14-.72.14-1 0z" fill="#f9423a"/></symbol><symbol fill="none" viewBox="0 0 24 20" id="ico-mail-social" xmlns="http://www.w3.org/2000/svg"><path d="M13.4 12.6a2.3 2.3 0 01-1.4.4 2.3 2.3 0 01-1.4-.4L0 6.9V17a3 3 0 003 3h18a3 3 0 003-3V6.9l-10.6 5.7z" fill="#4ABF56"/><path d="M21 0H3a3 3 0 00-3 3v1a1.05 1.05 0 00.5.9l11 6a.9.9 0 00.5.1.9.9 0 00.5-.1l11-6A1.05 1.05 0 0024 4V3a3 3 0 00-3-3z" fill="#4ABF56"/></symbol><symbol fill="none" viewBox="0 0 20 18" id="ico-map" xmlns="http://www.w3.org/2000/svg"><path d="M7.5.667v15m5-13.334v15M.833 3.114a1 1 0 01.757-.97L7.217.737a1 1 0 01.559.022l4.447 1.482a1 1 0 00.56.022l5.14-1.286a1 1 0 011.243.97v12.939a1 1 0 01-.757.97l-5.627 1.406a1 1 0 01-.559-.02l-4.447-1.483a1 1 0 00-.559-.022l-5.141 1.286a1 1 0 01-1.243-.97V3.112z"/></symbol><symbol fill="none" viewBox="0 0 15 20" id="ico-map-marker-solid" xmlns="http://www.w3.org/2000/svg"><g clip-path="url(#cqclip0)"><path d="M6.73 19.596C1.053 11.368 0 10.524 0 7.5a7.5 7.5 0 1115 0c0 3.024-1.053 3.868-6.73 12.096a.938.938 0 01-1.54 0zm.77-8.971a3.125 3.125 0 100-6.25 3.125 3.125 0 000 6.25z" fill="#777"/></g><defs><clipPath id="cqclip0"><path fill="#fff" d="M0 0h15v20H0z"/></clipPath></defs></symbol><symbol fill="none" viewBox="0 0 18 18" id="ico-medical" xmlns="http://www.w3.org/2000/svg"><path fill-rule="evenodd" clip-rule="evenodd" d="M2 0h14c1.1 0 2 .9 2 2v14c0 1.1-.9 2-2 2H2c-1.1 0-2-.9-2-2L.01 2C.01.9.9 0 2 0zm9 11h4V7h-4V3H7v4H3v4h4v4h4v-4z" fill="#0E7D8C"/></symbol><symbol fill="none" viewBox="0 0 18 20" id="ico-pharmacy" xmlns="http://www.w3.org/2000/svg"><path fill-rule="evenodd" clip-rule="evenodd" d="M15.36 4H18v2l-2 6 2 6v2H0v-2l2-6-2-6V4h12.69l1.46-4 2.35.86L15.36 4zM10 13h3v-2h-3V8H8v3H5v2h3v3h2v-3z" fill="#0E7D8C"/></symbol><symbol fill="none" viewBox="0 0 23 23" id="ico-phone" xmlns="http://www.w3.org/2000/svg"><path d="M18.207 14.207a1 1 0 00-1.414 0l-1.586 1.586a1 1 0 01-1.414 0L7.207 9.207a1 1 0 010-1.414l1.586-1.586a1 1 0 000-1.414L5.207 1.207a1 1 0 00-1.414 0l-2 2a.974.974 0 00-.288.709c.217 9.61 7.969 17.362 17.58 17.58a.977.977 0 00.708-.289l2-2a1 1 0 000-1.414l-3.586-3.586z" stroke="#111" stroke-width="1.5" stroke-miterlimit="10" stroke-linecap="round" stroke-linejoin="round"/></symbol><symbol fill="none" viewBox="0 0 16 16" id="ico-phone-filled" xmlns="http://www.w3.org/2000/svg"><path d="M15.285 12.305L12.707 9.71a1 1 0 00-1.416-.002L9 11.999 4 7l2.294-2.293a1 1 0 00.001-1.414L3.715.708a1 1 0 00-1.415 0L.004 3.003 0 3c0 7.18 5.82 13 13 13l2.283-2.283a1 1 0 00.002-1.412z" fill="#999"/></symbol><symbol fill="none" viewBox="0 0 16 16" id="ico-phone-red" xmlns="http://www.w3.org/2000/svg"><path d="M15.285 12.305L12.707 9.71a1 1 0 00-1.416-.002L9 11.999 4 7l2.294-2.293a1 1 0 00.001-1.414L3.715.708a1 1 0 00-1.415 0L.004 3.003 0 3c0 7.18 5.82 13 13 13l2.283-2.283a1 1 0 00.002-1.412z" fill="#f9423a"/></symbol><symbol fill="none" viewBox="0 0 12 16" id="ico-pin" xmlns="http://www.w3.org/2000/svg"><path d="M11.5 6c0 4.5-5.5 9.5-5.5 9.5S.5 10.5.5 6a5.5 5.5 0 1111 0v0z" stroke="#777" stroke-linecap="round" stroke-linejoin="round"/><path d="M6 8.5a2.5 2.5 0 100-5 2.5 2.5 0 000 5z" stroke="#777" stroke-linecap="round" stroke-linejoin="round"/></symbol><symbol fill="none" viewBox="0 0 18 23" id="ico-pin-2" xmlns="http://www.w3.org/2000/svg"><path d="M9 0C4.6 0 0 3.4 0 9c0 5.3 8 13.4 8.3 13.7.2.2.4.3.7.3.3 0 .5-.1.7-.3C10 22.4 18 14.3 18 9c0-5.6-4.6-9-9-9zm0 12c-1.7 0-3-1.3-3-3s1.3-3 3-3 3 1.3 3 3-1.3 3-3 3z" fill="#444"/></symbol><symbol fill="none" viewBox="0 0 18 23" id="ico-pin-filled" xmlns="http://www.w3.org/2000/svg"><path d="M9 0C4.6 0 0 3.4 0 9c0 5.3 8 13.4 8.3 13.7.2.2.4.3.7.3.3 0 .5-.1.7-.3C10 22.4 18 14.3 18 9c0-5.6-4.6-9-9-9zm0 12c-1.7 0-3-1.3-3-3s1.3-3 3-3 3 1.3 3 3-1.3 3-3 3z" fill="#444"/></symbol><symbol fill="none" viewBox="0 0 24 24" id="ico-pinterest" xmlns="http://www.w3.org/2000/svg"><path d="M12 0C5.4 0 0 5.4 0 12c0 5.1 3.2 9.4 7.6 11.2-.1-.9-.2-2.4 0-3.4.2-.9 1.4-6 1.4-6s-.3-.8-.3-1.8c0-1.7 1-2.9 2.2-2.9 1 0 1.5.8 1.5 1.7 0 1-.7 2.6-1 4-.3 1.2.6 2.2 1.8 2.2 2.1 0 3.8-2.2 3.8-5.5 0-2.9-2.1-4.9-5-4.9-3.4 0-5.4 2.6-5.4 5.2 0 1 .4 2.1.9 2.7.1.1.1.2.1.3-.1.4-.3 1.2-.3 1.4-.1.2-.2.3-.4.2-1.5-.7-2.4-2.9-2.4-4.6 0-3.8 2.8-7.3 7.9-7.3 4.2 0 7.4 3 7.4 6.9 0 4.1-2.6 7.5-6.2 7.5-1.2 0-2.4-.6-2.8-1.4 0 0-.6 2.3-.7 2.9-.3 1-1 2.3-1.5 3.1 1 .3 2.2.5 3.4.5 6.6 0 12-5.4 12-12S18.6 0 12 0z" fill="#D42D2A"/></symbol><symbol fill="none" viewBox="0 0 12 12" id="ico-plus" xmlns="http://www.w3.org/2000/svg"><path d="M12 5H7V0H5v5H0v2h5v5h2V7h5V5z" fill="#F9423A"/></symbol><symbol fill="none" viewBox="0 0 24 24" id="ico-plus-circle" xmlns="http://www.w3.org/2000/svg"><path d="M12 23.75A11.75 11.75 0 10.25 12 11.764 11.764 0 0012 23.75zm0-21A9.25 9.25 0 112.75 12 9.26 9.26 0 0112 2.75z" fill="#fff"/><path d="M6.273 13.25H10.5a.25.25 0 01.25.25v4.227a1.25 1.25 0 002.5 0V13.5a.25.25 0 01.25-.25h4.227a1.25 1.25 0 100-2.5H13.5a.25.25 0 01-.25-.25V6.272a1.25 1.25 0 10-2.5 0V10.5a.25.25 0 01-.25.25H6.273a1.25 1.25 0 000 2.5z" fill="#fff"/></symbol><symbol fill="none" viewBox="0 0 44 41" id="ico-real-estate" xmlns="http://www.w3.org/2000/svg"><path d="M20.3 5a7 7 0 100 6H26l3 2 3-2h5l1-6H20.3zM7 22h2a9.583 9.583 0 018 4h6a6.621 6.621 0 016 6H15" stroke="#111" stroke-width="1.5" stroke-miterlimit="10" stroke-linecap="round" stroke-linejoin="round"/><path d="M27.2 28H37a6.074 6.074 0 016 4l-21.2 7.7a9.449 9.449 0 01-5-.2L7 34.9M7 20H1v16h6V20z" stroke="#111" stroke-width="1.5" stroke-miterlimit="10" stroke-linecap="round" stroke-linejoin="round"/><path d="M13 10a2 2 0 100-4 2 2 0 000 4z" fill="#111"/></symbol><symbol fill="none" viewBox="0 0 15 16" id="ico-reset" xmlns="http://www.w3.org/2000/svg"><path d="M7.5 15.5c1.13 0 2.198-.268 3.144-.744m-8.338-1.563a7.004 7.004 0 002.206 1.639M.5 8.5c0 .881.163 1.724.46 2.5m11.837 2.076A7 7 0 007.5 1.5c-2.636 0-4.828 1.641-6 4" stroke="#F9423A" stroke-miterlimit="10" stroke-linecap="round" stroke-linejoin="round"/><path d="M1.5.5v5h5" stroke="#F9423A" stroke-miterlimit="10" stroke-linecap="round" stroke-linejoin="round"/></symbol><symbol fill="none" viewBox="0 0 20 19" id="ico-restaurants" xmlns="http://www.w3.org/2000/svg"><path fill-rule="evenodd" clip-rule="evenodd" d="M18.15 7.15c-1.59 1.59-3.74 2.09-5.27 1.38L11.41 10l6.88 6.88-1.41 1.41L10 11.41l-6.89 6.87-1.41-1.41 9.76-9.76c-.71-1.53-.21-3.68 1.38-5.27 1.92-1.91 4.66-2.27 6.12-.81 1.47 1.47 1.1 4.21-.81 6.12zm-9.22.36L6.1 10.34 1.91 6.16a4.008 4.008 0 010-5.66l7.02 7.01z" fill="#0E7D8C"/></symbol><symbol fill="none" viewBox="0 0 20 20" id="ico-save-search" xmlns="http://www.w3.org/2000/svg"><g clip-path="url(#dfclip0)"><path d="M19.606 17.293l-3.87-3.895a.928.928 0 00-.66-.273h-.633a8.117 8.117 0 001.708-5C16.15 3.637 12.536 0 8.075 0 3.615 0 0 3.637 0 8.125c0 4.488 3.615 8.125 8.075 8.125 1.876 0 3.6-.64 4.97-1.719v.637c0 .25.097.488.272.664l3.87 3.895a.924.924 0 001.317 0l1.098-1.106a.946.946 0 00.004-1.328zm-11.53-4.168c-2.745 0-4.97-2.234-4.97-5 0-2.762 2.22-5 4.97-5 2.744 0 4.969 2.234 4.969 5 0 2.762-2.22 5-4.97 5z" fill="#777"/><g clip-path="url(#dfclip1)"><path d="M17.637.645c-.992-.845-2.467-.693-3.378.247l-.357.367-.356-.367C12.637-.048 11.16-.2 10.168.645c-1.137.97-1.197 2.712-.18 3.764l3.504 3.617a.567.567 0 00.82 0l3.502-3.617c1.02-1.052.96-2.793-.177-3.764z" fill="#fff"/><g clip-path="url(#dfclip2)"><path d="M17.077.856c-.75-.639-1.864-.524-2.552.186l-.269.277-.27-.277c-.686-.71-1.801-.825-2.55-.186a1.963 1.963 0 00-.136 2.842l2.646 2.732c.17.176.448.176.62 0l2.645-2.732c.77-.794.724-2.11-.134-2.842z" fill="#777"/></g></g></g><defs><clipPath id="dfclip0"><path fill="#fff" d="M0 0h19.878v20H0z"/></clipPath><clipPath id="dfclip1"><path fill="#fff" transform="translate(9.268 -.488)" d="M0 0h9.268v9.268H0z"/></clipPath><clipPath id="dfclip2"><path fill="#fff" transform="translate(10.756)" d="M0 0h7v7H0z"/></clipPath></defs></symbol><symbol fill="none" viewBox="0 0 18 18" id="ico-search" xmlns="http://www.w3.org/2000/svg"><path d="M8.438 15.188a6.75 6.75 0 100-13.5 6.75 6.75 0 000 13.5zm9 2.25L13.21 13.21" stroke="#777" stroke-width="2" stroke-miterlimit="10" stroke-linecap="round" stroke-linejoin="round"/></symbol><symbol fill="none" viewBox="0 0 42 42" id="ico-search-large" xmlns="http://www.w3.org/2000/svg"><path d="M41 41L28.314 28.314M17 33c8.837 0 16-7.163 16-16S25.837 1 17 1 1 8.163 1 17s7.163 16 16 16z" stroke="#111" stroke-width="2" stroke-miterlimit="10" stroke-linecap="round" stroke-linejoin="round"/></symbol><symbol fill="none" viewBox="0 0 15 16" id="ico-search-plus" xmlns="http://www.w3.org/2000/svg"><path d="M6.5 13.5a6 6 0 100-12 6 6 0 000 12zm8 2l-3.758-3.758" stroke="#777" stroke-miterlimit="10" stroke-linecap="round" stroke-linejoin="round"/><path d="M9.312 8.4H7.188v2.1H5.904V8.4H3.78V7.2h2.124V5.1h1.284v2.1h2.124v1.2z" fill="#777"/></symbol><symbol fill="none" viewBox="0 0 15 15" id="ico-search-small" xmlns="http://www.w3.org/2000/svg"><path d="M6.5 12.5a6 6 0 100-12 6 6 0 000 12zm8 2l-3.758-3.758" stroke="#777" stroke-miterlimit="10" stroke-linecap="round" stroke-linejoin="round"/></symbol><symbol fill="none" viewBox="0 0 20 20" id="ico-search-solid" xmlns="http://www.w3.org/2000/svg"><g clip-path="url(#dkclip0)"><path d="M19.606 17.293l-3.87-3.895a.928.928 0 00-.66-.273h-.633a8.117 8.117 0 001.708-5C16.15 3.637 12.536 0 8.075 0 3.615 0 0 3.637 0 8.125c0 4.488 3.615 8.125 8.075 8.125 1.876 0 3.6-.64 4.97-1.719v.637c0 .25.097.488.272.664l3.87 3.895a.924.924 0 001.317 0l1.098-1.106a.946.946 0 00.004-1.328zm-11.53-4.168c-2.745 0-4.97-2.234-4.97-5 0-2.762 2.22-5 4.97-5 2.744 0 4.969 2.234 4.969 5 0 2.762-2.22 5-4.97 5z" fill="#777"/></g><defs><clipPath id="dkclip0"><path fill="#fff" d="M0 0h19.878v20H0z"/></clipPath></defs></symbol><symbol fill="none" viewBox="0 0 20 20" id="ico-settings-gear-solid" xmlns="http://www.w3.org/2000/svg"><path d="M19.167 10c0-.92-.746-1.667-1.667-1.667h-1.052a6.64 6.64 0 00-.71-1.715l.744-.743a1.666 1.666 0 10-2.357-2.357l-.743.744a6.64 6.64 0 00-1.715-.71V2.5a1.667 1.667 0 00-3.333 0v1.052a6.64 6.64 0 00-1.715.71l-.744-.744a1.666 1.666 0 10-2.357 2.357l.744.743a6.64 6.64 0 00-.71 1.715H2.5a1.667 1.667 0 000 3.334h1.052a6.64 6.64 0 00.71 1.715l-.743.743a1.666 1.666 0 102.356 2.357l.744-.744c.529.313 1.104.553 1.715.71V17.5a1.667 1.667 0 003.333 0v-1.052a6.64 6.64 0 001.715-.71l.743.744a1.666 1.666 0 102.357-2.357l-.743-.743c.312-.53.552-1.105.71-1.715H17.5c.92 0 1.667-.746 1.667-1.667z" fill="#777" stroke="#777" stroke-width="1.5" stroke-miterlimit="10" stroke-linecap="round" stroke-linejoin="round"/><path d="M10 12.5a2.5 2.5 0 100-5 2.5 2.5 0 000 5z" fill="#fff" stroke="#fff" stroke-width="1.5" stroke-miterlimit="10" stroke-linecap="round" stroke-linejoin="round"/></symbol><symbol fill="none" viewBox="0 0 14 16" id="ico-share" xmlns="http://www.w3.org/2000/svg"><path d="M5.12 6.675l3.761-2.35m-3.761 5l3.761 2.35M11 5.5a2.5 2.5 0 100-5 2.5 2.5 0 000 5zm0 10a2.5 2.5 0 100-5 2.5 2.5 0 000 5zm-8-5a2.5 2.5 0 100-5 2.5 2.5 0 000 5z"/></symbol><symbol fill="none" viewBox="0 0 16 16" id="ico-sort" xmlns="http://www.w3.org/2000/svg"><path d="M15.111 4.864H6.156V3.087h8.955a.889.889 0 010 1.777zm0 3.566H6.156V6.654h8.955a.889.889 0 010 1.778zm0 1.79a.889.889 0 110 1.777H8.89a2.195 2.195 0 00-.188-1.777h6.41z" fill="#444"/><path d="M.33 10.524a1.124 1.124 0 011.588 0l.923.922V1.841a1.124 1.124 0 112.248 0v9.605l.923-.922a1.124 1.124 0 011.59 1.589L4.76 14.954c-.438.438-1.15.44-1.59 0L.33 12.113a1.124 1.124 0 010-1.59z" fill="#444"/></symbol><symbol fill="none" viewBox="0 0 20 20" id="ico-sort-down-solid" xmlns="http://www.w3.org/2000/svg"><g clip-path="url(#doclip0)"><path d="M11.875 16.25h-2.5a.625.625 0 00-.625.625v1.25a.625.625 0 00.625.625h2.5a.625.625 0 00.625-.625v-1.25a.625.625 0 00-.625-.625zm-5-2.5H5V1.875a.625.625 0 00-.625-.625h-1.25a.625.625 0 00-.625.625V13.75H.625a.625.625 0 00-.441 1.067l3.125 3.75a.625.625 0 00.884 0l3.125-3.75a.626.626 0 00-.443-1.067zm10-7.5h-7.5a.625.625 0 00-.625.625v1.25a.625.625 0 00.625.625h7.5a.625.625 0 00.625-.625v-1.25a.625.625 0 00-.625-.625zm-2.5 5h-5a.625.625 0 00-.625.625v1.25a.625.625 0 00.625.625h5a.625.625 0 00.625-.625v-1.25a.625.625 0 00-.625-.625zm5-10h-10a.625.625 0 00-.625.625v1.25a.625.625 0 00.625.625h10A.625.625 0 0020 3.125v-1.25a.625.625 0 00-.625-.625z" fill="#777"/></g><defs><clipPath id="doclip0"><path fill="#fff" d="M0 0h20v20H0z"/></clipPath></defs></symbol><symbol fill="none" viewBox="0 0 14 14" id="ico-star" xmlns="http://www.w3.org/2000/svg"><path d="M13.25 4.76l-3.777-.55L7.787.787a.91.91 0 00-1.575 0L4.526 4.21.75 4.76a.875.875 0 00-.487 1.492l2.733 2.664-.645 3.763a.875.875 0 001.27.922L7 11.824l3.378 1.775a.875.875 0 001.27-.922l-.645-3.763 2.734-2.662a.874.874 0 00-.484-1.492h-.002z" fill="#fff"/></symbol><symbol fill="none" viewBox="0 0 18 18" id="ico-star-red" xmlns="http://www.w3.org/2000/svg"><path d="M17.666 6.547a1.129 1.129 0 00-1.054-.735h-4.565a.375.375 0 01-.354-.25L10.053.916a1.125 1.125 0 00-2.107 0l-.003.012L6.308 5.56a.375.375 0 01-.354.25H1.388A1.125 1.125 0 00.665 7.8l3.888 3.225a.375.375 0 01.117.407l-1.634 4.899a1.125 1.125 0 001.733 1.262l4.01-2.94a.375.375 0 01.442 0l4.008 2.94a1.126 1.126 0 001.734-1.262l-1.633-4.902a.375.375 0 01.116-.407l3.896-3.23a1.124 1.124 0 00.324-1.245z" fill="#F9423A"/></symbol><symbol fill="none" viewBox="0 0 20 20" id="ico-th-list-solid" xmlns="http://www.w3.org/2000/svg"><path d="M5.833 8.438v3.124c0 .518-.42.938-.937.938H.938A.937.937 0 010 11.562V8.438C0 7.92.42 7.5.938 7.5h3.958c.518 0 .937.42.937.938zM0 14.688v3.124c0 .518.42.938.938.938h3.958c.518 0 .937-.42.937-.938v-3.125a.937.937 0 00-.937-.937H.938a.937.937 0 00-.938.938zM4.896 1.25H.938A.937.937 0 000 2.188v3.124c0 .518.42.938.938.938h3.958c.518 0 .937-.42.937-.938V2.188a.937.937 0 00-.937-.937zm3.125 17.5h11.041c.518 0 .938-.42.938-.938v-3.125a.937.937 0 00-.938-.937H8.021a.937.937 0 00-.938.938v3.124c0 .518.42.938.938.938zM7.083 2.187v3.126c0 .517.42.937.938.937h11.041c.518 0 .938-.42.938-.938V2.188a.937.937 0 00-.938-.937H8.021a.937.937 0 00-.938.938zM8.021 12.5h11.041c.518 0 .938-.42.938-.938V8.438a.937.937 0 00-.938-.938H8.021a.937.937 0 00-.938.938v3.124c0 .518.42.938.938.938z" fill="#777"/></symbol><symbol fill="none" viewBox="0 0 16 16" id="ico-train" xmlns="http://www.w3.org/2000/svg"><path d="M4.5 12.5l-2 3m9-3l2 3m-13-12v3m15-3v3m-2 6h-11v-11a1 1 0 011-1h9a1 1 0 011 1v11zm-11-5h11" stroke="#444" stroke-miterlimit="10" stroke-linecap="round" stroke-linejoin="round"/><path d="M5 11a1 1 0 100-2 1 1 0 000 2zm6 0a1 1 0 100-2 1 1 0 000 2z" fill="#444"/></symbol><symbol fill="none" viewBox="0 0 16 19" id="ico-train-filled" xmlns="http://www.w3.org/2000/svg"><path d="M8 0C4 0 0 .5 0 4v9.5C0 15.43 1.57 17 3.5 17L2 18.5v.5h2.23l2-2H10l2 2h2v-.5L12.5 17c1.93 0 3.5-1.57 3.5-3.5V4c0-3.5-3.58-4-8-4zM3.5 15c-.83 0-1.5-.67-1.5-1.5S2.67 12 3.5 12s1.5.67 1.5 1.5S4.33 15 3.5 15zM7 8H2V4h5v4zm2 0V4h5v4H9zm3.5 7c-.83 0-1.5-.67-1.5-1.5s.67-1.5 1.5-1.5 1.5.67 1.5 1.5-.67 1.5-1.5 1.5z" fill="#111"/></symbol><symbol fill="none" viewBox="0 0 15 16" id="ico-trash" xmlns="http://www.w3.org/2000/svg"><path d="M1.5 6.5v7a2 2 0 002 2h8a2 2 0 002-2v-7m-13-3h14m-9 0v-3h4v3m-2 4v5m3-5v5m-6-5v5" stroke="#777" stroke-miterlimit="10" stroke-linecap="round" stroke-linejoin="round"/></symbol><symbol fill="none" viewBox="0 0 14 20" id="ico-trolley" xmlns="http://www.w3.org/2000/svg"><path d="M14 14.94V6.5c0-2.79-2.61-3.4-6.01-3.49l.76-1.51H12V0H2v1.5h4.75l-.76 1.52C2.86 3.11 0 3.73 0 6.5v8.44c0 1.45 1.19 2.66 2.59 2.97L1 19.5v.5h2.23l2-2H9l2 2h2v-.5L11.5 18h-.08c1.69 0 2.58-1.37 2.58-3.06zM7 16.5c-.83 0-1.5-.67-1.5-1.5s.67-1.5 1.5-1.5 1.5.67 1.5 1.5-.67 1.5-1.5 1.5zm5-4.5H2V7h10v5z" fill="#111"/></symbol><symbol fill="none" viewBox="0 0 24 20" id="ico-twitter" xmlns="http://www.w3.org/2000/svg"><path d="M24 2.6c-.9.4-1.8.7-2.8.8 1-.6 1.8-1.6 2.2-2.7-1 .6-2 1-3.1 1.2-.9-1-2.2-1.6-3.6-1.6-2.7 0-4.9 2.2-4.9 4.9 0 .4 0 .8.1 1.1-4.2-.2-7.8-2.2-10.2-5.2-.5.8-.7 1.6-.7 2.5 0 1.7.9 3.2 2.2 4.1-.8 0-1.6-.2-2.2-.6v.1c0 2.4 1.7 4.4 3.9 4.8-.4.1-.8.2-1.3.2-.3 0-.6 0-.9-.1.6 2 2.4 3.4 4.6 3.4-1.7 1.3-3.8 2.1-6.1 2.1-.4 0-.8 0-1.2-.1 2.2 1.4 4.8 2.2 7.5 2.2 9.1 0 14-7.5 14-14v-.6c1-.7 1.8-1.6 2.5-2.5z" fill="#489DE5"/></symbol><symbol fill="none" viewBox="0 0 20 24" id="ico-user" xmlns="http://www.w3.org/2000/svg"><path d="M13 15H7a6 6 0 00-6 6v1s3.125 1 9 1 9-1 9-1v-1a6 6 0 00-6-6zM5 6a5 5 0 0110 0c0 2.761-2.239 6-5 6S5 8.761 5 6z" stroke="#111" stroke-width="1.5" stroke-miterlimit="10" stroke-linecap="round" stroke-linejoin="round"/></symbol><symbol fill="none" viewBox="0 0 20 20" id="ico-user-2" xmlns="http://www.w3.org/2000/svg"><path fill-rule="evenodd" clip-rule="evenodd" d="M10 0C4.48 0 0 4.48 0 10s4.48 10 10 10 10-4.48 10-10S15.52 0 10 0zm0 3c1.66 0 3 1.34 3 3s-1.34 3-3 3-3-1.34-3-3 1.34-3 3-3zM4 13.98a7.2 7.2 0 0012 0c-.03-1.99-4.01-3.08-6-3.08-2 0-5.97 1.09-6 3.08z" fill="#fff"/></symbol><symbol fill="none" viewBox="0 0 14 16" id="ico-user-filled" xmlns="http://www.w3.org/2000/svg"><path d="M7 9C4.8 9 3 7.2 3 5V4c0-2.2 1.8-4 4-4s4 1.8 4 4v1c0 2.2-1.8 4-4 4zm2 2H5c-2.8 0-5 2.2-5 5h14c0-2.8-2.2-5-5-5z" fill="#999"/></symbol><symbol fill="none" viewBox="0 0 24 24" id="ico-walking" xmlns="http://www.w3.org/2000/svg"><path d="M11.37 5.784a2.5 2.5 0 100-5 2.5 2.5 0 000 5zm2.19 5.396c.732.55 1.549.977 2.417 1.266l1.177.392a1.5 1.5 0 001.958-1.198 1.551 1.551 0 00-1.084-1.673L16.925 9.6a5.514 5.514 0 01-1.564-.82l-1.016-.762a5.7 5.7 0 00-5.963-.54A6.319 6.319 0 004.87 13.05a1.5 1.5 0 001.5 1.613 1.5 1.5 0 001.5-1.426 3.413 3.413 0 011.622-2.944.25.25 0 01.38.214v1.357a19.48 19.48 0 01-.463 4.217 12.745 12.745 0 01-2.214 4.7 1.5 1.5 0 002.345 1.873 17.331 17.331 0 002.56-5.309.25.25 0 01.433-.08 16.622 16.622 0 012.415 4.926 1.5 1.5 0 102.846-.952 17.2 17.2 0 00-4.568-7.518.992.992 0 01-.355-.754v-1.804a.25.25 0 01.4-.2l.288.218z" fill="#444"/></symbol><symbol fill="none" viewBox="0 0 10 16" id="ico-walking-2" xmlns="http://www.w3.org/2000/svg"><path d="M5.152 6.152L7.5 8.5l2-1m-7-1l-2 1v2m6 1l1 1v4m-5 0L5.672 4.321M6.5 4.5a2 2 0 100-4 2 2 0 000 4z" stroke="#444" stroke-linecap="round" stroke-linejoin="round"/></symbol><symbol fill="none" viewBox="0 0 133 37" id="logo" xmlns="http://www.w3.org/2000/svg"><path fill-rule="evenodd" clip-rule="evenodd" d="M29.048 31c4.997 0 9.047-4.253 9.047-9.5s-4.05-9.5-9.047-9.5C24.05 12 20 16.253 20 21.5s4.05 9.5 9.048 9.5z" fill="#F9423A"/><path d="M30.485 21.236L32.2 27h-6l1.715-5.764c-1.014-.442-1.715-1.389-1.715-2.486 0-1.519 1.343-2.75 3-2.75s3 1.231 3 2.75c0 1.097-.701 2.044-1.715 2.486z" fill="#fff"/><path d="M6.703 9.297v6.328c.542-.625 1.068-1.12 1.578-1.484A5.669 5.669 0 0110 13.328a6.983 6.983 0 012.016-.281c1.083 0 2.041.229 2.875.687a4.894 4.894 0 011.984 2c.302.51.505 1.084.61 1.72.104.624.156 1.348.156 2.171v8.172c0 .854-.198 1.5-.594 1.937-.386.438-.901.657-1.547.657-1.406 0-2.11-.865-2.11-2.594v-7.203c0-1.365-.203-2.412-.609-3.14-.406-.74-1.177-1.11-2.312-1.11-.76 0-1.448.218-2.063.656-.604.427-1.057 1.016-1.36 1.766-.228.635-.343 1.765-.343 3.39v5.64c0 .845-.193 1.49-.578 1.938-.375.438-.901.657-1.578.657-1.406 0-2.11-.865-2.11-2.594v-18.5c0-.865.183-1.51.547-1.938.375-.437.896-.656 1.563-.656.677 0 1.203.219 1.578.656.385.438.578 1.084.578 1.938zm48.766 12.734v5.672c0 .896-.203 1.568-.61 2.016-.406.448-.942.672-1.609.672-.646 0-1.172-.224-1.578-.672-.396-.448-.594-1.12-.594-2.016v-6.797c0-1.073-.036-1.906-.11-2.5-.072-.593-.27-1.078-.593-1.453-.323-.385-.833-.578-1.531-.578-1.396 0-2.318.48-2.766 1.438-.437.958-.656 2.333-.656 4.125v5.765c0 .886-.203 1.557-.61 2.016-.395.448-.921.672-1.578.672-.645 0-1.177-.224-1.593-.672-.407-.459-.61-1.13-.61-2.016V15.5c0-.802.183-1.412.547-1.828.375-.417.865-.625 1.469-.625.583 0 1.068.198 1.453.594.396.385.594.921.594 1.609v.406c.74-.885 1.531-1.536 2.375-1.953.843-.416 1.781-.625 2.812-.625 1.073 0 1.995.214 2.766.64.77.428 1.406 1.074 1.906 1.938.719-.875 1.49-1.52 2.313-1.937.823-.427 1.734-.64 2.734-.64 1.167 0 2.172.228 3.016.687a4.374 4.374 0 011.89 1.968c.365.771.547 1.985.547 3.641v8.328c0 .896-.203 1.568-.61 2.016-.406.448-.942.672-1.609.672-.645 0-1.177-.224-1.593-.672-.407-.459-.61-1.13-.61-2.016v-7.172c0-.916-.041-1.65-.125-2.203-.073-.552-.281-1.015-.625-1.39-.343-.375-.864-.563-1.562-.563-.563 0-1.1.167-1.61.5-.5.333-.89.781-1.172 1.344-.312.718-.468 1.99-.468 3.812zm26.031.735h-8.344c.01.968.203 1.823.578 2.562.386.74.891 1.297 1.516 1.672a4.044 4.044 0 002.094.563c.51 0 .974-.058 1.39-.172a4.865 4.865 0 001.235-.563A9.98 9.98 0 0081.063 26a51.96 51.96 0 001.296-1.188c.22-.187.532-.28.938-.28.437 0 .791.119 1.062.359s.407.578.407 1.015c0 .386-.151.839-.454 1.36-.302.51-.76 1.005-1.374 1.484-.605.469-1.37.86-2.297 1.172-.917.312-1.974.469-3.172.469-2.74 0-4.87-.782-6.39-2.344-1.522-1.563-2.282-3.682-2.282-6.36 0-1.26.187-2.427.562-3.5.375-1.083.922-2.01 1.641-2.78.719-.772 1.604-1.36 2.656-1.766 1.052-.417 2.219-.625 3.5-.625 1.667 0 3.094.354 4.281 1.062 1.198.698 2.094 1.604 2.688 2.719.594 1.114.89 2.25.89 3.406 0 1.073-.307 1.771-.921 2.094-.615.312-1.48.469-2.594.469zm-8.344-2.422h7.735c-.105-1.459-.5-2.547-1.188-3.266-.677-.729-1.573-1.094-2.687-1.094-1.063 0-1.938.37-2.625 1.11-.678.729-1.089 1.812-1.235 3.25zM89.86 30.39a2.432 2.432 0 01-1.671-.625c-.47-.417-.704-1-.704-1.75 0-.636.224-1.183.672-1.641.448-.458 1-.688 1.656-.688.657 0 1.214.23 1.672.688.47.448.704.995.704 1.64 0 .74-.235 1.323-.704 1.75-.458.417-1 .626-1.625.626zm22.5-5.282c0 .532-.161 1.1-.484 1.703-.313.605-.797 1.183-1.453 1.735-.646.541-1.464.979-2.453 1.312-.99.334-2.104.5-3.344.5-2.635 0-4.693-.765-6.172-2.297-1.479-1.541-2.219-3.604-2.219-6.187 0-1.75.339-3.297 1.016-4.64.677-1.344 1.656-2.38 2.938-3.11 1.281-.74 2.812-1.11 4.593-1.11 1.104 0 2.115.162 3.031.485.928.323 1.709.74 2.344 1.25.646.51 1.136 1.057 1.469 1.64.344.573.516 1.11.516 1.61 0 .51-.193.943-.579 1.297-.374.354-.833.531-1.374.531-.355 0-.652-.088-.891-.265-.229-.188-.49-.485-.781-.891-.521-.792-1.068-1.386-1.641-1.781-.563-.396-1.281-.594-2.156-.594-1.261 0-2.276.495-3.047 1.484-.771.98-1.156 2.323-1.156 4.032 0 .802.099 1.541.296 2.218a5.12 5.12 0 00.86 1.719c.375.469.828.828 1.359 1.078.531.24 1.115.36 1.75.36.854 0 1.584-.198 2.188-.594.614-.396 1.156-1 1.625-1.813.26-.479.541-.854.844-1.125.302-.27.671-.406 1.109-.406.521 0 .953.198 1.297.594.344.396.515.817.515 1.265zm14.516 2.875c-1.031.802-2.031 1.407-3 1.813-.958.396-2.036.594-3.234.594-1.094 0-2.058-.214-2.891-.641-.823-.438-1.458-1.026-1.906-1.766a4.56 4.56 0 01-.672-2.406c0-1.166.37-2.161 1.109-2.984.74-.823 1.755-1.375 3.047-1.657.271-.062.943-.203 2.016-.421a104.06 104.06 0 002.75-.594 58.76 58.76 0 002.5-.672c-.052-1.125-.282-1.948-.688-2.469-.396-.531-1.224-.797-2.484-.797-1.083 0-1.901.151-2.453.454-.542.302-1.011.755-1.407 1.359-.385.604-.661 1.005-.828 1.203-.156.188-.5.281-1.031.281a1.86 1.86 0 01-1.25-.453 1.534 1.534 0 01-.515-1.187c0-.75.265-1.48.796-2.188.532-.708 1.36-1.291 2.485-1.75 1.125-.458 2.526-.687 4.203-.687 1.875 0 3.349.224 4.422.671 1.073.438 1.828 1.136 2.265 2.094.448.959.672 2.23.672 3.813 0 1-.005 1.849-.015 2.547 0 .698-.006 1.474-.016 2.328 0 .802.13 1.64.391 2.515.27.865.406 1.422.406 1.672 0 .438-.208.839-.625 1.203-.406.354-.87.532-1.391.532-.437 0-.87-.203-1.297-.61-.427-.416-.88-1.015-1.359-1.797zm-.281-6.172c-.625.23-1.537.474-2.735.735-1.187.25-2.01.437-2.468.562-.459.115-.896.35-1.313.703-.417.344-.625.829-.625 1.454 0 .646.245 1.198.735 1.656.489.448 1.13.672 1.921.672.844 0 1.62-.183 2.329-.547.718-.375 1.244-.854 1.578-1.438.385-.646.578-1.708.578-3.187v-.61z" fill="#F9423A"/></symbol><symbol fill="none" viewBox="0 0 36 36" id="logo-small" xmlns="http://www.w3.org/2000/svg"><path fill-rule="evenodd" clip-rule="evenodd" d="M18 36c9.941 0 18-8.059 18-18S27.941 0 18 0 0 8.059 0 18s8.059 18 18 18z" fill="#F9423A"/><path d="M20.393 16.91l3.193 10.69H12.414l3.193-10.69c-1.888-.819-3.193-2.575-3.193-4.61 0-2.817 2.5-5.1 5.586-5.1 3.085 0 5.586 2.283 5.586 5.1 0 2.035-1.305 3.791-3.193 4.61z" fill="#fff"/></symbol></svg>